<?xml version="1.0" encoding="UTF-8"?><svg id="icons" xmlns="http://www.w3.org/2000/svg" viewBox="0 0 507.39 501"><g id="arrow-up"><path d="M250.42,499.01c-15.74,0-28.5-12.76-28.5-28.5V30.49c0-15.74,12.76-28.5,28.5-28.5s28.5,12.76,28.5,28.5V470.51c0,15.74-12.76,28.5-28.5,28.5Z"/><path d="M76.48,242.45c-7.04,0-14.09-2.59-19.6-7.82-11.42-10.83-11.9-28.87-1.07-40.29L229.74,10.89c10.83-11.42,28.86-11.9,40.29-1.07,11.42,10.83,11.9,28.87,1.07,40.29L97.16,233.56c-5.6,5.91-13.14,8.89-20.68,8.89Z"/><path d="M424.91,242.45c-7.55,0-15.08-2.98-20.68-8.89L230.29,50.1c-10.83-11.42-10.35-29.46,1.07-40.29,11.42-10.83,29.46-10.35,40.29,1.07l173.94,183.46c10.83,11.42,10.35,29.46-1.07,40.29-5.51,5.22-12.56,7.82-19.6,7.82Z"/></g></svg>