<?xml version="1.0" encoding="UTF-8"?><svg xmlns="http://www.w3.org/2000/svg" viewBox="0 0 500 499.13"><defs><style>.e{fill:#1d1d1b;}</style></defs><g id="a"/><g id="b"><g id="c"><g id="d"><rect class="e" y="459.13" width="500" height="40"/><path class="e" d="M122.16,275.06L45.97,447.35l172.29-76.19-96.1-96.1Zm8.76,46.95l40.39,40.39-39.51,17.47-10.91-10.96-7.42-7.45,17.44-39.45Z"/><path class="e" d="M231.84,361.14l-99.45-99.78L356.3,38.53l99.45,99.78-223.92,222.82Zm-52.05-99.66l52.17,52.26,176.4-175.54-52.17-52.26-176.4,175.54Z"/><path class="e" d="M432.54,161.41l-99.45-99.78,48.09-47.86c18.52-18.43,48.57-18.35,67,.16l32.62,32.62c8.93,8.97,13.82,20.88,13.79,33.53-.03,12.65-4.99,24.54-13.96,33.47l-48.09,47.86Zm-52.05-99.66l52.17,52.26,24.33-24.21c2.62-2.61,4.07-6.09,4.08-9.79,0-3.7-1.42-7.18-4.04-9.81h0l-32.62-32.62c-5.39-5.41-14.18-5.44-19.6-.05l-24.33,24.21Z"/></g></g></g></svg>