<svg xmlns="http://www.w3.org/2000/svg" viewBox="0 0 500 497.94">
    <defs>
        <style>.cls-1{fill:#1d1d1b;}</style>
    </defs>
    <g id="Layer_2" data-name="Layer 2">
        <g id="Pin">
            <path id="Path_53" data-name="Path 53" class="cls-1" d="M459.48,304.55V440.8a15.45,15.45,0,0,1-15.23,15.54H55.75A15.45,15.45,0,0,1,40.52,440.8V304.55H0V466.84a30.86,30.86,0,0,0,30.48,31.1h439A30.87,30.87,0,0,0,500,466.88V304.55Z"/>
            <path class="cls-1" d="M391.25,142.09,265.35,6.55c-.13-.15-.27-.29-.41-.44A20.25,20.25,0,0,0,249.53,0l-.65,0-.44,0A20.25,20.25,0,0,0,235,6.57L109.15,142.09a21.35,21.35,0,0,0,.77,29.77,20.3,20.3,0,0,0,14.18,5.77v0a20.36,20.36,0,0,0,15-6.56l90.3-97.21V346.13a20.83,20.83,0,0,0,20.63,21v-.06h0a20.83,20.83,0,0,0,20.6-21.06V73.43l90.69,97.64a20.36,20.36,0,0,0,29.17.79A21.36,21.36,0,0,0,391.25,142.09Z"/>
        </g>
    </g>
</svg>