<svg id="Pin" xmlns="http://www.w3.org/2000/svg" viewBox="0 0 500 500"><defs><style>.cls-1{fill:#333;}</style></defs><path class="cls-1" d="M249.34,82.6c-56.32,0-102,43.32-102,99.64a102,102,0,0,0,204,0C351.32,125.92,305.66,82.6,249.34,82.6Z"/><path class="cls-1" d="M250,0C111.93,0,0,111.93,0,250S111.93,500,250,500,500,388.07,500,250,388.07,0,250,0Zm58.94,446.47-14.68,14.68-44.92-44.92-44.92,44.92-14.67-14.68,44.92-44.92-44.92-44.92L204.42,342l44.92,44.92L294.26,342l14.68,14.67L264,401.55ZM331.69,277c-20,19.23-49.91,30.92-81,30.92a121.22,121.22,0,0,1-81.38-31.22c-36.2,18.05-73.34,45-101.17,105.38-26.3-38.52-41.79-83.47-41.79-132C26.32,126.46,126.46,26.32,250,26.32S473.68,126.46,473.68,250a222.65,222.65,0,0,1-35.43,120.86C408.81,323.37,373.07,296.07,331.69,277Z"/></svg>