<?xml version="1.0" encoding="UTF-8"?><svg id="icons" xmlns="http://www.w3.org/2000/svg" viewBox="0 0 507.39 501"><g id="arrow2-up"><path d="M128.81,500.5c-9.98,0-18.06-8.09-18.06-18.06V18.56c0-9.98,8.09-18.06,18.06-18.06s18.06,8.09,18.06,18.06V482.44c0,9.97-8.09,18.06-18.06,18.06Z"/><path d="M18.56,152.91c-4.46,0-8.93-1.64-12.42-4.95-7.24-6.86-7.54-18.3-.68-25.53L115.7,6.14c6.86-7.24,18.29-7.54,25.53-.68,7.24,6.86,7.54,18.3,.68,25.53L31.67,147.27c-3.55,3.75-8.33,5.64-13.11,5.64Z"/><path d="M239.4,152.91c-4.78,0-9.56-1.89-13.11-5.64L116.05,30.99c-6.86-7.24-6.56-18.67,.68-25.53,7.24-6.86,18.67-6.56,25.53,.68l110.24,116.28c6.86,7.24,6.56,18.67-.68,25.53-3.49,3.31-7.96,4.95-12.42,4.95Z"/></g><g id="arrow2-up-2"><path d="M372.19,.5c9.98,0,18.06,8.09,18.06,18.06V482.44c0,9.98-8.09,18.06-18.06,18.06s-18.06-8.09-18.06-18.06V18.56c0-9.97,8.09-18.06,18.06-18.06Z"/><path d="M482.44,348.09c4.46,0,8.93,1.64,12.42,4.95,7.24,6.86,7.54,18.3,.68,25.53l-110.24,116.28c-6.86,7.24-18.29,7.54-25.53,.68-7.24-6.86-7.54-18.3-.68-25.53l110.24-116.28c3.55-3.75,8.33-5.64,13.11-5.64Z"/><path d="M261.6,348.09c4.78,0,9.56,1.89,13.11,5.64l110.24,116.28c6.86,7.24,6.56,18.67-.68,25.53-7.24,6.86-18.67,6.56-25.53-.68l-110.24-116.28c-6.86-7.24-6.56-18.67,.68-25.53,3.49-3.31,7.96-4.95,12.42-4.95Z"/></g></svg>