<svg xmlns="http://www.w3.org/2000/svg" viewBox="0 0 500 500">

<!-- Dont export for screen as this will crop to size. Do full export for 500px -->
<symbol id="bell" viewBox="0 0 500 500">
	<path d="M464.83,435.24l-27.08-29.04c-17.83-17.44-30.41-39.53-36.31-63.77V191.44c-.05-69.43-46.33-130.33-113.21-148.98-1.18-9.64-5.26-18.7-11.69-25.98-7.94-8.21-18.98-12.68-30.4-12.3-12.21-.43-24.05,4.22-32.71,12.85-6.84,7.47-11.28,16.82-12.73,26.85-64.48,20.24-108.37,79.98-108.42,147.56v150.97c-2.71,13.75-8.73,26.63-17.55,37.53-9.64,14.92-19.51,27.19-19.6,27.34l-22.6,27.97H169.96c9.51,42.47,51.65,69.19,94.12,59.68,29.76-6.67,53.01-29.91,59.68-59.68h141.07Zm-217.97,27.08c-17.78-.01-33.84-10.65-40.79-27.02h81.58c-6.95,16.37-23,27.01-40.79,27.02m-15.5-428.17c4-3.7,9.35-5.57,14.78-5.17,4.5-.36,8.95,1.2,12.24,4.3,1.18,1.26,2.15,2.71,2.89,4.27-4.75-.44-9.56-.66-14.43-.66-6.13,0-12.25,.36-18.33,1.07,.79-1.39,1.76-2.67,2.89-3.81M102.36,400.75l1.24-1.88c12.66-16.38,20.7-35.86,23.27-56.4V191.44c-.02-66.3,53.72-120.07,120.03-120.08,66.3-.02,120.07,53.72,120.08,120.03v151.05c2,21.16,9.86,41.34,22.69,58.28l-287.3,.03Z"/>
</symbol>


<symbol id="arrow-up" viewBox="0 0 500 500">
	<g>
		<path d="M476.24,388.13c6.14-.14,12.23-2.55,16.93-7.22,9.73-9.67,9.78-25.4,.11-35.14L268.67,120.19c-9.67-9.73-25.4-9.78-35.14-.11-9.73,9.67-9.78,25.4-.11,35.14l224.61,225.58c5.01,5.04,11.63,7.48,18.21,7.33Z"/>
		<path d="M24.71,388.39c6.58,.17,13.21-2.26,18.23-7.29l225.7-226.1c9.69-9.72,9.67-25.45-.04-35.14-9.71-9.69-25.45-9.67-35.14,.04L7.76,346c-9.69,9.72-9.67,25.45,.04,35.14,4.69,4.68,10.78,7.09,16.91,7.25Z"/>
	</g>
</symbol>

<symbol id="arrow-right" viewBox="0 0 500 500">
	<g>
		<path d="M112.87,476.24c.14,6.14,2.55,12.23,7.22,16.93,9.67,9.73,25.4,9.78,35.14,.11l225.58-224.61c9.73-9.67,9.78-25.4,.11-35.14-9.67-9.73-25.4-9.78-35.14-.11L120.2,458.03c-5.04,5.01-7.48,11.63-7.33,18.21Z"/>
		<path d="M112.61,24.71c-.17,6.58,2.26,13.21,7.29,18.23l226.1,225.7c9.72,9.69,25.45,9.67,35.14-.04,9.69-9.71,9.67-25.45-.04-35.14L155,7.76c-9.72-9.69-25.45-9.67-35.14,.04-4.68,4.69-7.09,10.78-7.25,16.91Z"/>
	</g>
</symbol>

<symbol id="arrow-down" viewBox="0 0 500 500">
	<g>
		<path d="M24.76,112.87c-6.14,.14-12.23,2.55-16.93,7.22-9.73,9.67-9.78,25.4-.11,35.14l224.61,225.58c9.67,9.73,25.4,9.78,35.14,.11,9.73-9.67,9.78-25.4,.11-35.14L42.97,120.2c-5.01-5.04-11.63-7.48-18.21-7.33Z"/>
		<path d="M476.29,112.61c-6.58-.17-13.21,2.26-18.23,7.29l-225.7,226.1c-9.69,9.72-9.67,25.45,.04,35.14,9.71,9.69,25.45,9.67,35.14-.04l225.7-226.1c9.69-9.72,9.67-25.45-.04-35.14-4.69-4.68-10.78-7.09-16.91-7.25Z"/>
	</g>
</symbol>

<symbol id="arrow-left" viewBox="0 0 500 500">
	<g>
		<path d="M388.13,476.24c-.14,6.14-2.55,12.23-7.22,16.93-9.67,9.73-25.4,9.78-35.14,.11L120.19,268.67c-9.73-9.67-9.78-25.4-.11-35.14,9.67-9.73,25.4-9.78,35.14-.11l225.58,224.61c5.04,5.01,7.48,11.63,7.33,18.21Z"/>
		<path d="M388.39,24.71c.17,6.58-2.26,13.21-7.29,18.23l-226.1,225.7c-9.72,9.69-25.45,9.67-35.14-.04-9.69-9.71-9.67-25.45,.04-35.14L346,7.76c9.72-9.69,25.45-9.67,35.14,.04,4.68,4.69,7.09,10.78,7.25,16.91Z"/>
	</g>
</symbol>

<symbol id="arrow2-up" viewBox="0 0 500 500">
	<g><path d="M250.42,499.01c-15.74,0-28.5-12.76-28.5-28.5V30.49c0-15.74,12.76-28.5,28.5-28.5s28.5,12.76,28.5,28.5V470.51c0,15.74-12.76,28.5-28.5,28.5Z"/>
	<path d="M76.48,242.45c-7.04,0-14.09-2.59-19.6-7.82-11.42-10.83-11.9-28.87-1.07-40.29L229.74,10.89c10.83-11.42,28.86-11.9,40.29-1.07,11.42,10.83,11.9,28.87,1.07,40.29L97.16,233.56c-5.6,5.91-13.14,8.89-20.68,8.89Z"/>
	<path d="M424.91,242.45c-7.55,0-15.08-2.98-20.68-8.89L230.29,50.1c-10.83-11.42-10.35-29.46,1.07-40.29,11.42-10.83,29.46-10.35,40.29,1.07l173.94,183.46c10.83,11.42,10.35,29.46-1.07,40.29-5.51,5.22-12.56,7.82-19.6,7.82Z"/></g>
</symbol>

<symbol id="arrow2-right" viewBox="0 0 500 500">
	<g>
		<path d="M1.99,250.22c0-15.74,12.76-28.5,28.5-28.5H470.51c15.74,0,28.5,12.76,28.5,28.5,0,15.74-12.76,28.5-28.5,28.5H30.49c-15.74,0-28.5-12.76-28.5-28.5Z"/>
		<path d="M258.55,76.28c0-7.04,2.59-14.09,7.82-19.6,10.83-11.42,28.87-11.9,40.29-1.07l183.46,173.94c11.42,10.83,11.9,28.86,1.07,40.29-10.83,11.42-28.87,11.9-40.29,1.07L267.44,96.97c-5.91-5.6-8.89-13.14-8.89-20.68Z"/>
		<path d="M258.55,424.72c0-7.55,2.98-15.08,8.89-20.68l183.46-173.94c11.42-10.83,29.46-10.35,40.29,1.07,10.83,11.42,10.35,29.46-1.07,40.29l-183.46,173.94c-11.42,10.83-29.46,10.35-40.29-1.07-5.22-5.51-7.82-12.56-7.82-19.6Z"/></g>
</symbol>

<symbol id="arrow2-down" viewBox="0 0 500 500">
	<g>
		<path d="M250.78,1.99c15.74,0,28.5,12.76,28.5,28.5V470.51c0,15.74-12.76,28.5-28.5,28.5-15.74,0-28.5-12.76-28.5-28.5V30.49c0-15.74,12.76-28.5,28.5-28.5Z"/>
		<path d="M424.72,258.55c7.04,0,14.09,2.59,19.6,7.82,11.42,10.83,11.9,28.87,1.07,40.29l-173.94,183.46c-10.83,11.42-28.86,11.9-40.29,1.07-11.42-10.83-11.9-28.87-1.07-40.29l173.94-183.46c5.6-5.91,13.14-8.89,20.68-8.89Z"/>
		<path d="M76.28,258.55c7.55,0,15.08,2.98,20.68,8.89l173.94,183.46c10.83,11.42,10.35,29.46-1.07,40.29-11.42,10.83-29.46,10.35-40.29-1.07L55.61,306.65c-10.83-11.42-10.35-29.46,1.07-40.29,5.51-5.22,12.56-7.82,19.6-7.82Z"/></g>
</symbol>

<symbol id="arrow2-left" viewBox="0 0 500 500">
	<g>
		<path d="M499.01,250.78c0,15.74-12.76,28.5-28.5,28.5H30.49c-15.74,0-28.5-12.76-28.5-28.5,0-15.74,12.76-28.5,28.5-28.5H470.51c15.74,0,28.5,12.76,28.5,28.5Z"/>
		<path d="M242.45,424.72c0,7.04-2.59,14.09-7.82,19.6-10.83,11.42-28.87,11.9-40.29,1.07L10.89,271.46c-11.42-10.83-11.9-28.86-1.07-40.29,10.83-11.42,28.87-11.9,40.29-1.07l183.46,173.94c5.91,5.6,8.89,13.14,8.89,20.68Z"/>
		<path d="M242.45,76.28c0,7.55-2.98,15.08-8.89,20.68L50.1,270.9c-11.42,10.83-29.46,10.35-40.29-1.07-10.83-11.42-10.35-29.46,1.07-40.29L194.35,55.61c11.42-10.83,29.46-10.35,40.29,1.07,5.22,5.51,7.82,12.56,7.82,19.6Z"/></g>
</symbol>
<symbol id="arrow2-left-right" viewBox="0 0 500 500">
	<g>
		<path d="M.5,128.81c0-9.98,8.09-18.06,18.06-18.06H482.44c9.98,0,18.06,8.09,18.06,18.06s-8.09,18.06-18.06,18.06H18.56c-9.97,0-18.06-8.09-18.06-18.06Z"/>
		<path d="M348.09,18.56c0-4.46,1.64-8.93,4.95-12.42,6.86-7.24,18.3-7.54,25.53-.68l116.28,110.24c7.24,6.86,7.54,18.29,.68,25.53-6.86,7.24-18.3,7.54-25.53,.68L353.73,31.67c-3.75-3.55-5.64-8.33-5.64-13.11Z"/>
		<path d="M348.09,239.4c0-4.78,1.89-9.56,5.64-13.11l116.28-110.24c7.24-6.86,18.67-6.56,25.53,.68,6.86,7.24,6.56,18.67-.68,25.53l-116.28,110.24c-7.24,6.86-18.67,6.56-25.53-.68-3.31-3.49-4.95-7.96-4.95-12.42Z"/>
	</g>
	<g>
		<path d="M500.5,372.19c0,9.98-8.09,18.06-18.06,18.06H18.56c-9.98,0-18.06-8.09-18.06-18.06s8.09-18.06,18.06-18.06H482.44c9.97,0,18.06,8.09,18.06,18.06Z"/>
		<path d="M152.91,482.44c0,4.46-1.64,8.93-4.95,12.42-6.86,7.24-18.3,7.54-25.53,.68L6.14,385.3c-7.24-6.86-7.54-18.29-.68-25.53,6.86-7.24,18.3-7.54,25.53-.68l116.28,110.24c3.75,3.55,5.64,8.33,5.64,13.11Z"/>
		<path d="M152.91,261.6c0,4.78-1.89,9.56-5.64,13.11L30.99,384.95c-7.24,6.86-18.67,6.56-25.53-.68-6.86-7.24-6.56-18.67,.68-25.53l116.28-110.24c7.24-6.86,18.67-6.56,25.53,.68,3.31,3.49,4.95,7.96,4.95,12.42Z"/>
	</g>
</symbol>
<symbol id="arrow2-up-down" viewBox="0 0 500 500">
	<g>
		<path d="M128.81,500.5c-9.98,0-18.06-8.09-18.06-18.06V18.56c0-9.98,8.09-18.06,18.06-18.06s18.06,8.09,18.06,18.06V482.44c0,9.97-8.09,18.06-18.06,18.06Z"/>
		<path d="M18.56,152.91c-4.46,0-8.93-1.64-12.42-4.95-7.24-6.86-7.54-18.3-.68-25.53L115.7,6.14c6.86-7.24,18.29-7.54,25.53-.68,7.24,6.86,7.54,18.3,.68,25.53L31.67,147.27c-3.55,3.75-8.33,5.64-13.11,5.64Z"/>
		<path d="M239.4,152.91c-4.78,0-9.56-1.89-13.11-5.64L116.05,30.99c-6.86-7.24-6.56-18.67,.68-25.53,7.24-6.86,18.67-6.56,25.53,.68l110.24,116.28c6.86,7.24,6.56,18.67-.68,25.53-3.49,3.31-7.96,4.95-12.42,4.95Z"/>
	</g>
	<g>
		<path d="M372.19,.5c9.98,0,18.06,8.09,18.06,18.06V482.44c0,9.98-8.09,18.06-18.06,18.06s-18.06-8.09-18.06-18.06V18.56c0-9.97,8.09-18.06,18.06-18.06Z"/>
		<path d="M482.44,348.09c4.46,0,8.93,1.64,12.42,4.95,7.24,6.86,7.54,18.3,.68,25.53l-110.24,116.28c-6.86,7.24-18.29,7.54-25.53,.68-7.24-6.86-7.54-18.3-.68-25.53l110.24-116.28c3.55-3.75,8.33-5.64,13.11-5.64Z"/>
		<path d="M261.6,348.09c4.78,0,9.56,1.89,13.11,5.64l110.24,116.28c6.86,7.24,6.56,18.67-.68,25.53-7.24,6.86-18.67,6.56-25.53-.68l-110.24-116.28c-6.86-7.24-6.56-18.67,.68-25.53,3.49-3.31,7.96-4.95,12.42-4.95Z"/>
	</g>
</symbol>

<symbol id="bin" viewBox="0 0 352.32 493.83">
	<path id="bin" d="M325.79,111.83H25.73V463.18a30.65,30.65,0,0,0,30.65,30.65H294.94a30.65,30.65,0,0,0,30.65-30.65V125C325.59,120.28,325.79,116.57,325.79,111.83Zm-210,332H75.4l.11-292h40.35Zm80,0H155.37l.11-292h40.35Zm79.59,0H235l.11-292h40.35Z"/>
	<path id="lid" d="M352.32,45.27V56.48a17.86,17.86,0,0,1-17.86,17.86H17.86A17.86,17.86,0,0,1,0,56.48V45.27A17.86,17.86,0,0,1,17.86,27.41h134.2a17.92,17.92,0,0,1-.9-5.65V18.24A18.24,18.24,0,0,1,169.4,0h13.52a18.24,18.24,0,0,1,18.24,18.24v3.52a17.92,17.92,0,0,1-.9,5.65h134.2A17.85,17.85,0,0,1,352.32,45.27Z"/>
</symbol>

<symbol id="bin-short" viewBox="0 0 392.15 498.98">
	<path id="bin" d="M363.06,128.24h-334V464.86A34.11,34.11,0,0,0,63.2,499H328.73a34.11,34.11,0,0,0,34.12-34.12S363.06,133.52,363.06,128.24ZM129.29,443.33H84.37L84.5,173.9h44.91Zm89,0H173.39l.12-269.43h44.91Zm88.58,0H262l.13-269.43H307Z"/><path id="lid" d="M392.15,50.39V62.87a19.87,19.87,0,0,1-19.88,19.87H19.88A19.88,19.88,0,0,1,0,62.87V50.39A19.87,19.87,0,0,1,19.88,30.51H169.25a19.87,19.87,0,0,1-1-6.29V20.3A20.3,20.3,0,0,1,188.55,0h15a20.3,20.3,0,0,1,20.3,20.3v3.92a19.87,19.87,0,0,1-1,6.29H372.27A19.87,19.87,0,0,1,392.15,50.39Z"/>
</symbol>


<symbol id="bulb" viewBox="0 0 500 498.66">
	<circle cx="250" cy="484.21" r="14.45"/>
	<path d="M137.26,140.28L42.26,45.28l10.14-10.14,94.76,94.76c-3.46,3.3-6.77,6.76-9.9,10.38Zm-36.44,97.6c0-.72,.02-1.44,.03-2.16H0v14.34H101.34c-.35-4.05-.52-8.12-.52-12.18ZM250,88.69c2.4,0,4.79,.06,7.17,.17V0h-14.34V88.87c2.38-.11,4.77-.18,7.17-.18Zm104.99,43.2c2.72,2.69,5.32,5.48,7.8,8.34l92.97-92.97-10.14-10.14-92.74,92.74c.7,.67,1.41,1.35,2.1,2.03Zm44.17,103.82c0,.22,.01,.43,.01,.64,.05,4.59-.13,9.15-.51,13.69h101.33v-14.34h-100.84Zm-254.99,107.16c-.68-.75-1.37-1.5-2.05-2.25l-76.27,69.88,10.14,10.14,75.72-69.33c-2.37-2.78-4.92-5.57-7.54-8.44Zm205.16,6.79c-.46,.46-.91,.9-1.35,1.33l69.67,69.67,10.14-10.14-69.74-69.74c-3.15,3.39-6.1,6.31-8.71,8.88Z"/>
	<g>
		<path class="cls-1" d="M336.64,152.11c-23.18-23.06-53.94-35.76-86.64-35.76-67.73,0-122.83,55.1-122.83,122.83,0,25.4,8.31,50.92,23.39,71.86,3.8,5.27,8.18,10.07,12.42,14.7,4.74,5.19,9.22,10.1,12.66,15.34,7.84,11.96,7.84,44.36,7.84,55.01,0,10.86,5.57,19.77,13.99,23.91h104.85c5.73-2.53,9.81-4.92,12.17-10.91,2.87-7.31,2.6-17.92,2.27-28.05-.08-2.59-.25-5.26-.21-8.05,.36-24.54,5.48-30.72,17.11-43.22,3.43-3.68,7.31-7.86,11.41-12.93,18.04-22.38,27.9-50.2,27.75-78.32-.17-32.67-13.02-63.36-36.19-86.42Zm-8.69,150.93c-3.6,4.47-7.05,8.17-10.38,11.76-12.6,13.54-23.49,25.24-23.01,58.52,.04,2.98,.13,5.75,.22,8.44,.13,3.96,.25,7.79,.15,10.98h-89.45c-.13-22.45-1.77-48.98-11.43-63.71-4.41-6.72-9.7-12.52-14.82-18.12-3.99-4.37-7.76-8.49-10.81-12.73-12.41-17.22-19.24-38.18-19.24-59,0-55.6,45.23-100.83,100.83-100.83s100.54,44.99,100.83,100.29c.12,23.08-8.01,45.95-22.88,64.4Z"/>
		<path d="M199.94,431.25v34.98s0,0,0,0v1.39h.04c.73,13.19,11.68,23.7,25.06,23.7h49.94c13.35,0,24.3-10.49,25.05-23.7h.15v-36.37h-100.24Z"/>
	</g>
</symbol>

<symbol id="bulb2" viewBox="0 0 500 498.66">
	<circle cx="250" cy="484.21" r="14.45"/>
	<g>
	<path d="M76.31,240.65c0-1.65,.03-3.3,.07-4.94H0v14.34H76.58c-.18-3.13-.27-6.26-.27-9.4Z"/>
	<path d="M131.26,114.01L52.39,35.14l-10.14,10.14L121.21,124.23c3.21-3.55,6.57-6.95,10.05-10.22Z"/>
	<path d="M250,66.96c2.4,0,4.79,.06,7.17,.16V0h-14.34V67.12c2.38-.1,4.77-.16,7.17-.16Z"/>
	<path d="M372.52,117.53h0c2.18,2.17,4.28,4.38,6.33,6.64l76.92-76.92-10.14-10.14-76.83,76.83c1.25,1.18,2.5,2.37,3.72,3.59Z"/>
	<path d="M128.62,365.06c-1.11-1.24-2.33-2.58-3.37-3.72-.83-.91-1.71-1.88-2.61-2.87l-56.79,52.03,10.14,10.14,53.26-48.76c-.2-2.93-.42-5.17-.63-6.82Z"/>
	<path d="M423.62,235.71c.04,1.34,.06,2.68,.07,4.03,.02,3.44-.08,6.88-.27,10.31h76.58v-14.34h-76.38Z"/>
	<path d="M371.22,365.56c-.29,.31-.59,.64-.9,.97-.02,.58-.04,1.24-.05,1.98,0,.4,.05,1.66,.08,2.41v.37c.04,.74,.07,1.47,.09,2.19l47.19,47.19,10.14-10.14-51.01-51.01c-2.01,2.24-3.88,4.25-5.55,6.04Z"/>
	</g>
	<path d="M337.25,152.98c-23.34-23.22-54.32-36.01-87.25-36.01-68.2,0-123.69,55.49-123.69,123.69,0,25.59,8.36,51.29,23.55,72.37,3.85,5.34,8.15,10.04,12.3,14.59,4.3,4.71,8.37,9.16,11.32,13.66,2.86,4.37,6.27,16.29,6.27,48.31,0,12.7,6.61,23.84,17.25,29.08l1.49,.73h102.68l1.38-.61c5.93-2.62,12-5.89,15.29-14.26,3.32-8.45,2.96-19.61,2.65-29.45-.02-.71-.05-1.42-.08-2.14-.07-1.7-.14-3.46-.12-5.18,.31-21.2,4.13-25.3,14.34-36.28,3.33-3.58,7.11-7.64,11.15-12.65,18.15-22.51,28.06-50.51,27.92-78.84-.17-32.9-13.11-63.81-36.44-87.02Zm-52.08,215.09c.04,2.75,.12,5.32,.2,7.81v.32c.04,1.02,.08,2.05,.1,3.07h-70.71c-.45-20.14-2.62-43.07-11.91-57.25-4.5-6.86-9.71-12.57-14.77-18.1-3.64-3.98-7.08-7.75-9.73-11.43-10.91-15.15-16.92-33.55-16.92-51.84,0-48.84,39.74-88.58,88.58-88.58s88.32,39.52,88.58,88.11c.11,20.27-7.05,40.38-20.14,56.62h0c-3.25,4.04-6.43,7.45-9.52,10.78-12.47,13.4-24.24,26.05-23.74,60.49Z"/>
	<path d="M199.94,431.25v34.98s0,0,0,0v1.39h.04c.73,13.19,11.68,23.7,25.06,23.7h49.94c13.35,0,24.3-10.49,25.05-23.7h.15v-36.37h-100.24Z"/>

</symbol>


<symbol id="calendar" viewBox="0 0 500 500">
	<path d="M62.5,400.23h41.67V358.56H62.5Zm104.17,0h41.66V358.56H166.67Zm104.16,0H312.5V358.56H270.83ZM62.5,337.73h41.67V296.06H62.5Zm104.17,0h41.66V296.06H166.67Zm104.16,0H312.5V296.06H270.83Zm104.17,0h41.67V296.06H375ZM62.5,275.23h41.67V233.56H62.5Zm104.17,0h41.66V233.56H166.67Zm104.16,0H312.5V233.56H270.83Zm104.17,0h41.67V233.56H375Zm-208.33-62.5h41.66V171.06H166.67Zm104.16,0H312.5V171.06H270.83Zm104.17,0h41.67V171.06H375ZM20.83,148.15H479.17V441.9H20.83ZM397.42,92.79V46.06h81.75v81.25H20.83V46.06H97.4V91.9h20.83V46.06H376.56V92.79ZM376.58,0V25.23H118.23V0H97.4V25.23H0v437.5H500V25.23H397.42V0Z"/>
</symbol>


<symbol id="circle-plus" viewBox="0 0 500 500">
	<rect x="229.32" y="102.71" width="41.36" height="294.57" transform="translate(500 0) rotate(90)"/>
	<rect x="229.32" y="102.71" width="41.36" height="294.57"/>
	<path d="M73.22,73.22c-97.63,97.63-97.63,255.93,0,353.56s255.93,97.63,353.56,0,97.63-255.93,0-353.56S170.85-24.41,73.22,73.22ZM408.93,408.93c-87.87,87.87-230.32,87.87-318.2,0s-87.87-230.32,0-318.2,230.33-87.87,318.2,0S496.8,321.06,408.93,408.93Z"/>
</symbol>


<symbol id="circle-cross" viewBox="0 0 500 500">
	<rect x="229.32" y="102.71" width="41.36" height="294.57" transform="translate(603.55 250) rotate(135)"/><rect x="229.32" y="102.71" width="41.36" height="294.57" transform="translate(250 -103.55) rotate(45)"/>
	<path d="M250,0C111.93,0,0,111.93,0,250S111.93,500,250,500,500,388.07,500,250,388.07,0,250,0Zm0,474.77c-124.27,0-225-100.74-225-225s100.73-225,225-225,225,100.73,225,225S374.27,474.77,250,474.77Z"/>
</symbol>

<symbol id="circle-tick" viewBox="0 0 500 500">
<g>
	<path d="M250,0C111.93,0,0,111.93,0,250s111.93,250,250,250,250-111.93,250-250S388.07,0,250,0Zm0,474.77c-124.27,0-225-100.73-225-225S125.73,24.77,250,24.77s225,100.73,225,225-100.73,225-225,225Z"/><path class="c" d="M78.02,265.85l23.93-17.66,99.18,62.72S338.53,124.79,384.33,106c42.69-17.51,41.62-10.07,41.62-10.07,0,0-68,83.68-93.61,122.35-29.6,44.7-121.67,201.21-121.67,201.21,0,0-37.56-44.27-65.26-78.77-25-31.14-67.39-74.87-67.39-74.87Z"/>
</g>
</symbol>


<symbol id="cog" viewBox="0 0 493.6 493.6">
	<g><path class="cls-1" d="M293.58,493.6H200V446.79a202.56,202.56,0,0,1-61.56-25.51L102,457.77,35.83,391.62l36.5-36.49a202.32,202.32,0,0,1-25.52-61.55H0V200H46.81a202.38,202.38,0,0,1,25.52-61.56L35.83,102,102,35.84l36.49,36.48A202.56,202.56,0,0,1,200,46.81V0h93.55V46.81a202.43,202.43,0,0,1,61.55,25.52l36.49-36.49L457.78,102l-36.5,36.49A202.46,202.46,0,0,1,446.79,200H493.6v93.55H446.79a202.51,202.51,0,0,1-25.51,61.55l36.5,36.49-66.16,66.15-36.49-36.5a202.18,202.18,0,0,1-61.55,25.52Zm-70.45-23.09h47.36V427.78l9.46-1.73A180.06,180.06,0,0,0,350.1,397L358,391.5l33.61,33.61,33.5-33.49L391.51,358,397,350.1A180.19,180.19,0,0,0,426.05,280l1.73-9.46h42.73V223.12H427.78l-1.73-9.47A180.19,180.19,0,0,0,397,143.5l-5.46-7.91L425.12,102l-33.5-33.49L358,102.1l-7.91-5.46A179.89,179.89,0,0,0,280,67.56l-9.46-1.74V23.09H223.13V65.82l-9.47,1.74A180.07,180.07,0,0,0,143.5,96.63l-7.91,5.46L102,68.49,68.49,102l33.61,33.61-5.46,7.92a179.92,179.92,0,0,0-29.08,70.15l-1.74,9.46H23.09v47.37H65.82L67.56,280A180,180,0,0,0,96.64,350.1L102.1,358,68.49,391.62,102,425.11l33.6-33.6L143.5,397a180.24,180.24,0,0,0,70.16,29.08l9.47,1.73Zm23.67-91.39a132,132,0,1,1,38.6-5.73h0A131.79,131.79,0,0,1,246.8,379.12Zm0-241.55a109.23,109.23,0,1,0,31.86,213.74h0a109.28,109.28,0,0,0,64.55-53.16,106.64,106.64,0,0,0,8.08-19.47,109.84,109.84,0,0,0,0-63.74,107.27,107.27,0,0,0-8.08-19.48,109,109,0,0,0-96.43-57.89Z"/><polygon points="214.78 188.9 306.25 246.8 214.78 304.7 214.78 188.9"/></g>
</symbol>

<symbol id="cog2" viewBox="0 0 493.6 493.6">
	<g><path class="cls-1" d="M293.58,493.6H200V446.79a202.56,202.56,0,0,1-61.56-25.51L102,457.77,35.83,391.62l36.5-36.49a202.32,202.32,0,0,1-25.52-61.55H0V200H46.81a202.38,202.38,0,0,1,25.52-61.56L35.83,102,102,35.84l36.49,36.48A202.56,202.56,0,0,1,200,46.81V0h93.55V46.81a202.43,202.43,0,0,1,61.55,25.52l36.49-36.49L457.78,102l-36.5,36.49A202.46,202.46,0,0,1,446.79,200H493.6v93.55H446.79a202.51,202.51,0,0,1-25.51,61.55l36.5,36.49-66.16,66.15-36.49-36.5a202.18,202.18,0,0,1-61.55,25.52Zm-70.45-23.09h47.36V427.78l9.46-1.73A180.06,180.06,0,0,0,350.1,397L358,391.5l33.61,33.61,33.5-33.49L391.51,358,397,350.1A180.19,180.19,0,0,0,426.05,280l1.73-9.46h42.73V223.12H427.78l-1.73-9.47A180.19,180.19,0,0,0,397,143.5l-5.46-7.91L425.12,102l-33.5-33.49L358,102.1l-7.91-5.46A179.89,179.89,0,0,0,280,67.56l-9.46-1.74V23.09H223.13V65.82l-9.47,1.74A180.07,180.07,0,0,0,143.5,96.63l-7.91,5.46L102,68.49,68.49,102l33.61,33.61-5.46,7.92a179.92,179.92,0,0,0-29.08,70.15l-1.74,9.46H23.09v47.37H65.82L67.56,280A180,180,0,0,0,96.64,350.1L102.1,358,68.49,391.62,102,425.11l33.6-33.6L143.5,397a180.24,180.24,0,0,0,70.16,29.08l9.47,1.73Z"/><path class="cls-1" d="M349.39,238.35,206.84,148.12a10,10,0,0,0-15.35,8.45V337a10,10,0,0,0,15.35,8.44l142.55-90.23a10,10,0,0,0,0-16.9Z"/></g>
</symbol>

<symbol id="cog3" viewBox="0 0 493.6 493.6">
	<g><path class="cls-1" d="M484,284V213.51H439.34a192.7,192.7,0,0,0-30.92-74.62l35-35L393.56,54.1l-35,35A192.37,192.37,0,0,0,284,58.14V13.49H213.52V58.14a192.55,192.55,0,0,0-74.63,30.93h0L127.35,77.52,103.92,54.1,54.1,103.92l35,35a192.43,192.43,0,0,0-30.94,74.62H13.49V284H58.14a192.43,192.43,0,0,0,30.94,74.62L77.53,370.14,54.1,393.56l49.82,49.82L127.35,420l11.54-11.54h0a192.68,192.68,0,0,0,74.63,30.92V484H284V439.34a192.5,192.5,0,0,0,74.62-30.93l35,35,49.83-49.82L420,370.14l-11.54-11.55A192.7,192.7,0,0,0,439.34,284ZM289.9,383.72a141.62,141.62,0,0,1-82.3,0,139.15,139.15,0,0,1-25.2-10.44,141.11,141.11,0,0,1,0-249.08,141,141,0,0,1,132.69,0,141.66,141.66,0,0,1,58.19,58.21,138.25,138.25,0,0,1,10.44,25.18,141.66,141.66,0,0,1,0,82.31,138.54,138.54,0,0,1-10.44,25.18,141.58,141.58,0,0,1-58.19,58.2A140.07,140.07,0,0,1,289.9,383.72Z"/><path class="cls-2" d="M326.48,242.2,216.19,172.39a7.73,7.73,0,0,0-11.87,6.54V318.56a7.73,7.73,0,0,0,11.87,6.53l110.29-69.81a7.74,7.74,0,0,0,0-13.08Z"/></g>
</symbol>

<symbol id="cog4" viewBox="0 0 493.6 493.6">
	<g><path class="cls-1" d="M297.46,497.48H200V450.27a204.4,204.4,0,0,1-59.33-24.59l-36.78,36.77L35,393.56l36.78-36.78a204.25,204.25,0,0,1-24.6-59.32H0V200H47.21a204.31,204.31,0,0,1,24.6-59.33L35,103.92,103.92,35,140.7,71.8A204.4,204.4,0,0,1,200,47.21V0h97.43V47.21a204.25,204.25,0,0,1,59.32,24.6L393.56,35l68.9,68.89L425.68,140.7A204.4,204.4,0,0,1,450.27,200h47.21v97.43H450.27a204.34,204.34,0,0,1-24.59,59.32l36.78,36.78-68.9,68.89-36.78-36.78a204,204,0,0,1-59.32,24.6Zm-70.45-27h43.47V428.1l11.06-2a178.19,178.19,0,0,0,69.39-28.77l9.25-6.38,33.38,33.38,30.76-30.75-33.38-33.37,6.37-9.25a178.14,178.14,0,0,0,28.77-69.4l2-11.06h42.4V227h-42.4l-2-11.05a178.14,178.14,0,0,0-28.77-69.4l-6.37-9.25,33.38-33.38L393.56,73.18l-33.38,33.38-9.25-6.38a177.89,177.89,0,0,0-69.39-28.77l-11.06-2V27H227V69.38l-11,2a178.11,178.11,0,0,0-69.41,28.76l-9.25,6.38L103.92,73.17,73.18,103.92l33.38,33.38-6.38,9.25A177.87,177.87,0,0,0,71.41,216l-2,11.05H27v43.48H69.38l2,11.06a177.89,177.89,0,0,0,28.77,69.39l6.38,9.25L73.18,393.56l30.74,30.75,33.38-33.37,9.24,6.37A178.25,178.25,0,0,0,216,426.08l11.06,2Zm21.73-67.2a154.33,154.33,0,0,1-45.08-6.69,152.78,152.78,0,0,1-27.61-11.44A154.59,154.59,0,1,1,385.18,176.06a152.17,152.17,0,0,1,11.45,27.62,155.31,155.31,0,0,1,0,90.15,152.12,152.12,0,0,1-11.45,27.61,154.41,154.41,0,0,1-136.43,81.87Zm0-282.17a127.61,127.61,0,0,0-60,240.24,125.64,125.64,0,0,0,22.76,9.43,128.17,128.17,0,0,0,74.45,0h0a127.73,127.73,0,0,0,84.85-159.29,125,125,0,0,0-9.43-22.76,127.41,127.41,0,0,0-112.65-67.63Z"/><path class="cls-1" d="M326.48,242.2,216.19,172.39a7.73,7.73,0,0,0-11.87,6.54V318.55a7.73,7.73,0,0,0,11.87,6.54l110.29-69.81a7.74,7.74,0,0,0,0-13.08Z"/></g>
</symbol>

<symbol id="cross" viewBox="0 0 500 500">
	<polygon points="500 61.56 438.44 0 250 188.44 61.56 0 0 61.56 188.44 250 0 438.44 61.56 500 250 311.56 438.44 500 500 438.44 311.56 250 500 61.56"/>
</symbol>


<symbol id="cross2" viewBox="0 0 500 500">
	<polygon points="49.07 0 0 49.07 150.19 199.25 0 349.44 49.07 398.51 199.25 248.32 349.44 398.51 398.51 349.44 248.32 199.25 398.51 49.07 349.44 0 199.25 150.19 49.07 0"/>
</symbol>


<symbol id="dev" viewBox="0 0 496.89 272.23">
	<g>
		<path d="M310.83,2.18c7.39,4.39,9.83,13.93,5.44,21.32l-108.88,241.1c-4.39,7.39-13.93,9.83-21.32,5.44-7.39-4.39-9.83-13.93-5.44-21.32L289.5,7.62c4.39-7.39,13.93-9.83,21.32-5.44Z"/><path d="M37.72,135.93L125.48,52.73c3.2-3.04,4.82-7.12,4.82-11.21,0-3.81-1.4-7.64-4.24-10.62-5.87-6.19-15.64-6.45-21.83-.58L4.8,124.58C1.56,127.65-.04,131.8,0,135.94c-.04,4.14,1.56,8.28,4.8,11.35l99.43,94.27c6.19,5.87,15.97,5.61,21.83-.58,2.83-2.99,4.24-6.81,4.24-10.62,0-4.09-1.62-8.17-4.82-11.21L37.72,135.93Z"/><path d="M496.89,133.88c.04-4.14-1.56-8.28-4.8-11.35L392.66,28.27c-6.19-5.87-15.97-5.61-21.83,.58-2.83,2.99-4.24,6.81-4.24,10.62,0,4.09,1.62,8.17,4.82,11.21l87.77,83.21-87.77,83.21c-3.2,3.04-4.82,7.12-4.82,11.21,0,3.81,1.4,7.64,4.24,10.62,5.87,6.19,15.64,6.45,21.83,.58l99.43-94.27c3.24-3.08,4.84-7.22,4.8-11.37Z"/>
	</g>
</symbol>


<symbol id="edit" viewBox="0 0 500 500">
	<g><rect y="459.13" width="500" height="40"/><path d="M122.16,275.06L45.97,447.35l172.29-76.19-96.1-96.1Zm8.76,46.95l40.39,40.39-39.51,17.47-10.91-10.96-7.42-7.45,17.44-39.45Z"/><path class="c" d="M231.84,361.14l-99.45-99.78L356.3,38.53l99.45,99.78-223.92,222.82Zm-52.05-99.66l52.17,52.26,176.4-175.54-52.17-52.26-176.4,175.54Z"/><path class="c" d="M432.54,161.41l-99.45-99.78,48.09-47.86c18.52-18.43,48.57-18.35,67,.16l32.62,32.62c8.93,8.97,13.82,20.88,13.79,33.53-.03,12.65-4.99,24.54-13.96,33.47l-48.09,47.86Zm-52.05-99.66l52.17,52.26,24.33-24.21c2.62-2.61,4.07-6.09,4.08-9.79,0-3.7-1.42-7.18-4.04-9.81h0l-32.62-32.62c-5.39-5.41-14.18-5.44-19.6-.05l-24.33,24.21Z"/></g>
</symbol>


<symbol id="email" viewBox="0 0 500 491.38">
	<path d="M111.29,469.13c-37.21-14.83-65.06-37.08-83.55-66.75C9.24,372.72,0,335.5,0,290.73v-36.68c0-12.23,.11-24.45,.33-36.68,.44-48.54,9.96-88.91,28.56-121.09,18.6-32.18,46.4-56.27,83.39-72.28C149.26,8,195.55,0,251.15,0s100.51,8.05,137.39,24.14c36.88,16.09,64.68,40.28,83.39,72.55,18.71,32.28,28.07,72.51,28.07,120.69v84.14c0,31.11-7.06,54.03-21.18,68.77-14.12,14.74-34.53,22.11-61.23,22.11-24.74,0-43.28-5.48-55.65-16.45-12.37-10.96-18.55-27.42-18.55-49.35l37.43-20.5c0,18.7,3.23,32.63,9.68,41.8,6.45,9.17,16.25,13.75,29.38,13.75,13.79,0,23.8-4.32,30.04-12.95,6.24-8.63,9.36-22.56,9.36-41.8v-89.54c0-41.35-7.83-75.87-23.47-103.56-15.65-27.69-38.96-48.45-69.93-62.3-30.97-13.84-69.22-20.77-114.74-20.77s-85.36,6.88-116.22,20.63c-30.86,13.75-54.12,34.43-69.76,62.03-15.65,27.6-23.69,62.26-24.13,103.97-.22,12.05-.33,24.18-.33,36.41v36.95c0,37.58,7.77,68.86,23.31,93.85,15.54,24.99,38.85,43.69,69.93,56.1,31.08,12.41,70.14,18.61,117.2,18.61h97.83v32.09h-97.83c-56.03,0-102.65-7.42-139.86-22.25Zm36.61-106.93c-19.15-20.13-28.73-50.34-28.73-90.62v-46.39c0-40.45,10.89-70.7,32.67-90.75,21.78-20.05,54.55-30.07,98.33-30.07s76.49,10.02,98.16,30.07c21.67,20.05,32.5,50.39,32.5,91.02v87.11l-31.52,23.73c-5.04,18.7-17.07,32.73-36.11,42.07-19.04,9.35-45.3,14.02-78.79,14.02-38.52,0-67.36-10.07-86.51-30.21Zm167.27-24.41c14.44-14.11,21.67-35.47,21.67-64.05v-51.51c0-28.22-7.22-49.35-21.67-63.38-14.45-14.02-36.33-21.04-65.66-21.04-57.57,0-86.34,28.23-86.34,84.68v51.24c0,28.59,7.17,49.94,21.5,64.05,14.33,14.12,35.95,21.17,64.84,21.17s51.21-7.05,65.66-21.17Z"/>
</symbol>


<symbol id="hamburger" viewBox="0 0 500 500">
	<path d="M500,175H0V125H500Zm0,50H0v50H500Zm0,100H0v50H500Z"/>
</symbol>

<symbol id="help1" viewBox="0 0 500 500">
	<path d="M473.74,361.63c35.65-71.43,34.97-156.37-2.04-227.28-11.48-22-26.46-42.65-44.93-61.13-18.48-18.48-39.13-33.45-61.13-44.93-70.91-37.01-155.85-37.69-227.28-2.04-23.5,11.73-45.55,27.38-65.14,46.98-17.37,17.37-31.63,36.67-42.82,57.19-39.8,73.01-40.51,161.67-2.11,235.23,11.48,22,26.46,42.65,44.93,61.13,18.48,18.48,39.13,33.45,61.13,44.93,73.56,38.4,162.22,37.69,235.23-2.11,20.53-11.19,39.82-25.45,57.19-42.82,19.6-19.6,35.25-41.64,46.98-65.14Zm-323.01,93.68c-22.39-10.83-43.39-25.51-61.97-44.1-18.58-18.58-33.27-39.58-44.1-61.97-30.88-63.88-30.21-139.16,2.01-202.55,10.61-20.88,24.63-40.47,42.09-57.92,19.71-19.71,42.14-35.05,66.08-46.04,61.61-28.27,133.23-27.62,194.39,1.94,22.39,10.83,43.39,25.51,61.97,44.1,18.58,18.58,33.27,39.58,44.1,61.97,29.57,61.16,30.22,132.77,1.94,194.39-10.98,23.94-26.32,46.37-46.04,66.08-17.46,17.46-37.05,31.48-57.92,42.09-63.38,32.22-138.67,32.89-202.55,2.01Z"/>
	<path d="M236.11,320.01v-5.47c0-18.54,4.88-39.37,47.43-69.73,35.06-25.21,39.27-43.82,39.27-62.49,0-22.77-18.56-52.4-67.43-52.4-44.38,0-67.5,21.14-74.68,55.01h-27.02c1.58-19.51,18.97-75.18,102.24-75.17,70.02,0,95.49,40.92,95.49,72.2s-12.44,50.7-50.9,78.21c-28.46,20.34-37.27,35.31-37.27,56.89v2.95h-27.12Zm0,85.54v-50.01h27.12v50.01h-27.12Z"/>
</symbol>

<symbol id="help2" viewBox="0 0 500 500">

<path d="M274.11,391.8l19.5-6.26c21.65-6.95,40.85-18.68,57.05-34.88,18.18-18.18,31.1-40.9,37.35-65.7l5.39-21.36,78.83,78.83-3.63,7.9c-11.9,25.93-28.24,49.38-48.56,69.71-18,18-38.55,32.93-61.1,44.39l-8.09,4.11-76.75-76.75Z"/>
<path d="M400.13,288.02l57.11,57.11c-10.98,23.94-26.32,46.37-46.04,66.08-17.46,17.46-37.05,31.48-57.92,42.09l-55.85-55.85c22.7-7.28,44.05-19.93,62.07-37.95,20.49-20.49,34.03-45.29,40.63-71.49m-13.47-48.82l-10.77,42.71c-5.71,22.62-17.49,43.34-34.07,59.92-14.78,14.78-32.28,25.48-52.03,31.82l-39.01,12.52,28.97,28.97,55.85,55.85,12.83,12.83,16.18-8.22c23.72-12.06,45.35-27.77,64.27-46.7,21.38-21.38,38.56-46.05,51.08-73.33l7.25-15.81-12.3-12.3-57.11-57.11-31.15-31.15h0Z"/>
<path d="M31.43,149.12l4.11-8.09c11.46-22.55,26.4-43.1,44.39-61.1,20.32-20.32,43.78-36.66,69.71-48.56l7.9-3.63,78.83,78.83-21.35,5.39c-24.8,6.26-47.52,19.17-65.7,37.35-16.2,16.2-27.93,35.39-34.88,57.05l-6.26,19.5L31.43,149.12Z"/>
<path d="M154.85,42.73l57.11,57.11c-26.19,6.61-51,20.15-71.49,40.63-18.02,18.02-30.66,39.37-37.95,62.07l-55.85-55.85c10.61-20.88,24.63-40.47,42.09-57.92,19.71-19.71,42.14-35.05,66.08-46.04m5.38-29.98l-15.81,7.25c-27.28,12.52-51.96,29.71-73.33,51.08-18.93,18.93-34.64,40.55-46.7,64.27l-8.22,16.18,12.83,12.83,55.85,55.85,28.97,28.97,12.52-39.01c6.33-19.74,17.04-37.25,31.82-52.03,16.58-16.58,37.31-28.37,59.92-34.07l42.71-10.77-31.15-31.15-57.11-57.11-12.3-12.3h0Z"/>
<path d="M386.83,210.64c-6.61-23.06-19.11-44.26-36.17-61.32-17.06-17.06-38.26-29.57-61.32-36.17l-20.41-5.85L346.68,29.56l8,3.87c24.22,11.71,46.22,27.36,65.37,46.51,19.15,19.15,34.8,41.15,46.51,65.37l3.87,8-77.74,77.75-5.85-20.41Z"/>
<path d="M349.24,44.68c22.39,10.83,43.39,25.51,61.97,44.1s33.27,39.58,44.1,61.97l-56.45,56.45c-7-24.43-20.11-47.48-39.35-66.72-19.24-19.24-42.29-32.35-66.72-39.35l56.45-56.45m-5.11-30.24l-12.56,12.56-56.45,56.45-30.02,30.02,40.81,11.69c21.02,6.02,40.36,17.43,55.92,32.99,15.56,15.56,26.97,34.9,32.99,55.92l11.69,40.81,30.02-30.02,56.45-56.45,12.56-12.56-7.73-16c-12.32-25.49-28.78-48.62-48.93-68.77-20.14-20.14-43.28-36.6-68.77-48.93l-16-7.73h0Z"/>
<path d="M145.3,466.56c-24.22-11.71-46.22-27.36-65.37-46.51-19.15-19.15-34.8-41.14-46.51-65.37l-3.87-8,77.75-77.75,5.85,20.41c6.61,23.06,19.11,44.26,36.17,61.32,17.06,17.06,38.26,29.57,61.32,36.17l20.41,5.85-77.75,77.74-8-3.87Z"/>
<path d="M101.13,292.79c7,24.43,20.11,47.48,39.35,66.72s42.29,32.35,66.72,39.35l-56.45,56.45c-22.39-10.83-43.39-25.51-61.97-44.1-18.58-18.58-33.27-39.58-44.1-61.97l56.45-56.45m12.34-47.7l-30.02,30.02-56.45,56.45-12.56,12.56,7.73,16c12.32,25.49,28.78,48.62,48.93,68.77,20.14,20.14,43.28,36.6,68.77,48.93l16,7.73,12.56-12.56,56.45-56.45,30.02-30.02-40.81-11.69c-21.02-6.02-40.36-17.43-55.92-32.99-15.56-15.56-26.97-34.9-32.99-55.92l-11.69-40.81h0Z"/>
<path d="M400.13,288.02c6.69-26.53,6.26-54.48-1.28-80.82-7-24.43-20.11-47.47-39.35-66.72-19.24-19.24-42.29-32.35-66.72-39.35-26.34-7.55-54.29-7.98-80.82-1.28-26.19,6.61-51,20.15-71.49,40.63-18.02,18.02-30.66,39.37-37.95,62.07-9.39,29.26-9.85,60.76-1.4,90.24,7,24.43,20.11,47.47,39.35,66.72,19.24,19.24,42.29,32.35,66.72,39.35,29.48,8.45,60.98,7.98,90.24-1.4,22.7-7.28,44.05-19.93,62.07-37.95,20.49-20.49,34.03-45.29,40.63-71.49Zm-169.53,87.43c-25.76-3.96-50.53-15.85-70.37-35.69-19.84-19.84-31.73-44.62-35.69-70.37-2.24-14.57-1.94-29.45,.9-43.94,4.69-23.9,16.28-46.7,34.8-65.22,21.21-21.21,48.06-33.34,75.72-36.4,11.12-1.23,22.36-.99,33.43,.71,25.76,3.96,50.53,15.85,70.37,35.69s31.73,44.62,35.69,70.37c1.7,11.07,1.94,22.31,.71,33.43-3.06,27.66-15.19,54.51-36.4,75.72-18.51,18.51-41.32,30.11-65.22,34.8-14.48,2.84-29.37,3.14-43.94,.9Z"/>
<path d="M473.74,361.63c35.65-71.43,34.97-156.37-2.04-227.28-11.48-22-26.46-42.65-44.93-61.13-18.48-18.48-39.13-33.45-61.13-44.93-70.91-37.01-155.85-37.69-227.28-2.04-23.5,11.73-45.55,27.38-65.14,46.98-17.37,17.37-31.63,36.67-42.82,57.19-39.8,73.01-40.51,161.67-2.11,235.23,11.48,22,26.46,42.65,44.93,61.13,18.48,18.48,39.13,33.45,61.13,44.93,73.56,38.4,162.22,37.69,235.23-2.11,20.53-11.19,39.82-25.45,57.19-42.82,19.6-19.6,35.25-41.64,46.98-65.14Zm-323.01,93.68c-22.39-10.83-43.39-25.51-61.97-44.1s-33.27-39.58-44.1-61.97c-30.88-63.88-30.21-139.16,2.01-202.55,10.61-20.88,24.63-40.47,42.09-57.92,19.71-19.71,42.14-35.05,66.08-46.04,61.61-28.27,133.23-27.62,194.39,1.94,22.39,10.83,43.39,25.51,61.97,44.1s33.27,39.58,44.1,61.97c29.57,61.16,30.22,132.77,1.94,194.39-10.98,23.94-26.32,46.37-46.04,66.08-17.46,17.46-37.05,31.48-57.92,42.09-63.38,32.22-138.67,32.89-202.55,2.01Z"/>
</symbol>


<symbol id="home" viewBox="0 0 500 500">
	<path d="M6.89,377.68H506.89m-172.34-114.15H164.34v40h170.21v-40ZM0,249.76v241.43H40V249.76H0Zm460-.77v233.62h40V249h-40Zm-165.45,14.53v219.09h40v-219.09h-40Zm-130.21,0v219.09h40v-219.09h-40ZM249.89,0L0,249.89l28.28,28.28L278.17,28.28,249.89,0Zm-26.1,30.24l247.93,247.93,28.28-28.28L249.89,0l-26.1,30.24Zm-19.44,420.95H0v40H204.34v-40Zm90.21,0v40h205.45v-40h-205.45Z"/>
</symbol>

<symbol id="home2" viewBox="0 0 500 500">
	<path d="M498.18,490.66H1.82V257.5L250,9.34,498.15,257.5V490.63ZM194.83,250h0V387.82H305.14V250Z"/>
</symbol>

<symbol id="home3" viewBox="0 0 500 500">
	<path d="M503.21,494.26v-238.12L254.04,7.19,5.08,256.14v238.12H202.65v-190.77h101.88v190.77h198.69ZM172.15,272.99v190.77H35.58v-194.99L254.15,50.2l218.57,218.57v194.99h-137.7v-190.77H172.15Z"/>
</symbol>


<symbol id="home-round" viewBox="0 0 500 500">
	<path d="M498.18,490.66H1.82V257.5L250,9.34,498.15,257.5V490.63Zm-303.35-168v96.49H305.14V322.68C305.14,237.38,194.83,237.38,194.83,322.68Z"/>
</symbol>


<symbol id="home-round-line" viewBox="0 0 500 500">
	<path d="M498.15,490.63V257.5L250,9.34,1.82,257.5V490.66H498.18Zm-450-44.9V283.34L250,81.5,451.82,283.34V445.71l0,0Z"/>
	<path d="M194.83,292.68v96.49H305.14V292.68C305.14,207.38,194.83,207.38,194.83,292.68Z"/>
</symbol>


<symbol id="kebab" viewBox="0 0 500 500">
	<g>
		<circle id="Ellipse_1" class="cls-1" cx="62.52" cy="62.5" r="62.52"/>
		<circle id="Ellipse_2" class="cls-1" cx="62.52" cy="250.09" r="62.52"/>
		<circle id="Ellipse_3" class="cls-1" cx="62.52" cy="437.5" r="62.52"/>
	</g>
</symbol>

<symbol id="mentor" viewBox="0 0 490.48 476.21">
	<g>
		<path d="M472.26,382.59c14.04,19.24,19.87,43.56,17.82,74.34-33.17,12.61-71.05,19.27-109.53,19.27s-76.36-6.66-109.53-19.27c-2.05-30.79,3.78-55.1,17.82-74.34,12-16.44,28.17-26.39,42.41-33.95h0l.42,.43c13.03,13.03,30.37,20.33,48.81,20.55h.14c18.45-.22,35.8-7.53,48.85-20.58l.39-.39c14.23,7.56,30.4,17.5,42.4,33.95Zm-132.14-123.41c-10.55,10.81-16.36,25.09-16.36,40.2s5.81,29.39,16.36,40.2c9.4,9.63,21.9,15.68,35.21,17.05l2.99,.31h1.47c.15,0,.3,0,.45,0h.65c.16,0,.29,0,.43,0h1.54l2.93-.31c13.31-1.37,25.81-7.43,35.21-17.05,10.55-10.81,16.36-25.09,16.36-40.2s-5.81-29.39-16.36-40.2c-9.4-9.63-21.9-15.69-35.21-17.05l-2.98-.31h-1.47c-.15,0-.29,0-.44,0h-.63c-.17,0-.32,0-.48,0h-1.51l-2.93,.31c-13.31,1.37-25.81,7.43-35.21,17.05Z"/>
		<path d="M248.28,372.67c-37.53,14.26-80.38,21.8-123.91,21.8s-86.39-7.54-123.91-21.8c-2.32-34.83,4.28-62.34,20.16-84.1,13.58-18.6,31.87-29.85,47.97-38.4h0l.48,.48c14.74,14.74,34.35,23,55.22,23.25h.15c20.87-.25,40.5-8.52,55.26-23.29l.44-.44c16.1,8.55,34.39,19.8,47.97,38.4,15.88,21.76,22.48,49.27,20.16,84.1Zm-129.82-113.46l3.38,.35h1.66c.17,0,.34,0,.51,0h.73c.18,0,.33,0,.48,0h1.74l3.31-.35c15.05-1.55,29.2-8.4,39.83-19.29,11.94-12.23,18.51-28.38,18.51-45.48s-6.57-33.25-18.51-45.48c-10.63-10.89-24.78-17.74-39.83-19.29l-3.38-.35h-1.66c-.17,0-.33,0-.49,0h-.72c-.19,0-.36,0-.54,0h-1.71l-3.31,.35c-15.05,1.55-29.2,8.4-39.83,19.29-11.94,12.23-18.51,28.38-18.51,45.48s6.57,33.25,18.51,45.48c10.63,10.89,24.78,17.74,39.83,19.29Z"/>
		<path d="M390.83,119.98C378.58,51.92,314.18,0,236.54,0S95.27,51.3,82.48,118.76h.36c12.51-7.35,27.06-11.58,42.62-11.58s30.11,4.23,42.62,11.58h2.62c14.55-36.54,52.75-62.62,97.6-62.62s83.89,26.66,98.07,63.83h-45.68l59.88,97.72,59.88-97.72h-49.6Z"/>
	</g>
</symbol>


<symbol id="notify-info" viewBox="0 0 500 500">	
	<g>
		<path d="M246.74,0C383,0,493.48,110.47,493.48,246.74S383,493.49,246.74,493.49,0,383,0,246.74,110.47,0,246.74,0Z"/>
		<path fill="#ffffff" d="M266.29,194.84l3.94,2.7q-2.28,27.19-2.28,69.13v46.92q0,4.57.83,29.38t1.76,29a12.34,12.34,0,0,0,2.8,6,8.61,8.61,0,0,0,4.57,2.38q2.7.53,22.42,1.77l1.87,1.66v8.72l-1.66,1.87q-25.95-1.67-50-1.66-23.88,0-49.83,1.66l-1.86-1.87v-8.72l1.86-1.66q20.15-1.25,22.74-1.87a9.49,9.49,0,0,0,4.56-2.59,11.07,11.07,0,0,0,2.7-6q.73-4,1.66-26.79t.94-34.35v-40.9q0-8.29-.83-22.63t-1.35-17.64a6.45,6.45,0,0,0-3.22-4.88q-2.7-1.56-10.79-1.56l-17.44-.21L197.78,221v-8.93l1.66-1.66Q239.09,205.64,266.29,194.84Zm-17.65-92.79A23.39,23.39,0,0,1,272.1,125.5a22.38,22.38,0,0,1-6.85,16.41,23.55,23.55,0,0,1-33.11.1,22.11,22.11,0,0,1-7-16.51,22.42,22.42,0,0,1,7-16.6A22.68,22.68,0,0,1,248.64,102.05Z"/>
	</g>
</symbol>

<symbol id="notify-triangle" viewBox="0 0 500 500">
	<g>
		<path d="M248.94,0l248.94,431.17H0L248.94,0Z"/>
		<path fill="#ffffff"  d="M246.95,344.93c7.42-.2,14.66,2,20.41,6.19,5.23,3.87,8.28,11.31,7.97,17.38,.09,6.13-2.95,11.97-8.27,15.84-5.82,4.17-13.14,6.3-20.59,5.98-7.63,.27-15.09-1.99-20.98-6.33-5.17-4.03-8-9.96-7.67-16.09-.14-6.06,2.71-13.43,7.97-17.25,6.05-4.13,13.57-6.16,21.16-5.74Zm-10.59-26.43l-12.21-176.25,55.93,.08-20.59,176.17h-23.13Z"/>
	</g>
</symbol>

<symbol id="notify-success" viewBox="0 0 500 500">
	<circle class="cls-1" cx="246.7" cy="246.7" r="246.7"/>
	<path fill="#ffffff" d="M319.79,118c2.45-4,4.3-8.57,8-11.59,6-4.86,14.26-5.7,21.67-5,8,.75,15.73,3.12,22,8.27a31.14,31.14,0,0,1,3.81,3.72c4.46,5.16,1.64,10.75-2.57,15-3.29,3.33-7.48,5.59-11.13,8.48a93.36,93.36,0,0,0-10.24,9.44,128.17,128.17,0,0,0-14.1,19.05l-1.19,1.9c-26.12,41.72-49.21,86.91-69.48,134.18-6.84,16-12.51,32.37-18.5,48.69-2.44,6.63-3.58,17.82-9,21.51-9.14,6.27-18.48,8.34-38.1-1.14-4.41-5.37-11-20.15-14.56-27.17-10.66-20.74-20.68-42.46-33.64-61.15-3.06-4.41-6.9-8.32-10.34-12.45-1.86-2.24-3.78-4.45-5.49-6.82s-3.41-4.92-4.09-7.67a4.6,4.6,0,0,1,.15-3,6,6,0,0,1,1.74-2.06,29.48,29.48,0,0,1,12-5.87A52.81,52.81,0,0,1,159.93,243a30.67,30.67,0,0,1,11.83,2.23l.55.25a14.26,14.26,0,0,1,1.78,1c4.77,3.24,8.33,9.46,11.77,14.15,10.75,14.69,29,54.17,29.69,52.34C235.73,242.35,305.55,141.06,319.79,118Z"/>
</symbol>

<symbol id="notify-reminder" viewBox="0 0 500 500">
	<g>
		<path d="M142,202.12v-140C142,27.82,169.32,0,203.11,0H438.85C472.62,0,500,27.82,500,62.16V313.91c0,34.34-27.38,62.16-61.15,62.16H203.11c-29.6,0-50-25.35-55.67-53.72H136.91L0,322.3Z"/>
		<path fill="#ffffff" d="M307,259q10,0,15.28,5.61a20.68,20.68,0,0,1,5.31,14.77,20.08,20.08,0,0,1-5.87,15,20.53,20.53,0,0,1-15,5.78,17.84,17.84,0,0,1-14-5.78,21.47,21.47,0,0,1-5.22-14.86,19.68,19.68,0,0,1,5.78-14.77A19.09,19.09,0,0,1,307,259Zm2.42-32.6,19-163.8,40.42-2.48L370,61.52,320.49,226.16Z"/>
	</g>
</symbol>


<symbol id="padlock" viewBox="0 0 500 500">
	<g>
		<path class="cls-1" d="M377.92,272.93V458.72H40V272.93H377.92m40-40H0V498.72H417.92V232.93Z"/>
		<path class="cls-1" d="M206.35,40A133.24,133.24,0,0,1,339.08,172.72v58.36H73.63V172.72A133.23,133.23,0,0,1,206.35,40m0-40c-95,0-172.72,77.72-172.72,172.72v98.36H379.08V172.72A173.24,173.24,0,0,0,206.35,0Z"/>
		<path class="cls-1" d="M206.35,310.29a22.28,22.28,0,0,0-22.21,22.22v66.63a22.22,22.22,0,1,0,44.43,0V332.51a22.29,22.29,0,0,0-22.22-22.22Z"/>
	</g>
</symbol>


<symbol id="payroll" viewBox="0 0 500 500">
	<g>
		<path class="cls-1" d="M332.44,403.99l3.59-18.86h26.4l2.69-16.52c1.44-8.74,4.16-17.15,8.17-25.24,4.01-8.08,9.52-15.24,16.52-21.46,7-6.22,15.63-11.23,25.86-15,10.24-3.77,22.24-5.66,36.01-5.66,16.04,0,31.37,2.33,45.98,7l.72,1.8-17.78,50.65-8.26,1.62-4.85-40.59c-5.15-2.51-11.08-3.77-17.78-3.77s-11.92,1.29-16.34,3.86c-4.43,2.58-8.14,6.02-11.14,10.33-3,4.31-5.42,9.37-7.27,15.18-1.86,5.81-3.32,11.94-4.4,18.41l-3.41,19.4h43.29l-3.59,18.86h-43.11c-3.83,21.91-17.54,40.47-41.13,55.68v1.08h97.89l19.4-32.33,10.6-1.44-15.99,64.84-1.44,1.26c-26.11-.36-54.06-.54-83.88-.54-36.4,0-64.78,.18-85.13,.54l1.8-14.37c14.97-4.19,26.25-9.34,33.86-15.45,7.6-6.11,12.96-18.8,16.08-38.08l3.41-21.19h-26.76Z"/><path class="cls-1" d="M270.83,233.56h41.67v41.67h-41.67v-41.67Zm104.17-20.83h41.67v-41.67h-41.67v41.67Zm0,62.5h41.67v-41.67h-41.67v41.67Zm-62.5-104.17h-41.67v41.67h41.67v-41.67Zm-41.67,166.67h41.67v-41.67h-41.67v41.67Zm-62.5-166.67h-41.67v41.67h41.67v-41.67ZM62.5,400.23h41.67v-41.67H62.5v41.67Zm41.67-104.17H62.5v41.67h41.67v-41.67Zm0-62.5H62.5v41.67h41.67v-41.67Zm62.5,166.67h41.67v-41.67h-41.67v41.67Zm41.67-104.17h-41.67v41.67h41.67v-41.67ZM500,25.23v250c-5.81-2.2-12.1-3.84-20.83-5.37v-121.71H20.83V441.9H291.67c-5.11,10.62-16.24,18.66-23.65,20.83H0V25.23H97.4V0h20.83V25.23H376.58V0h20.83V25.23h102.58Zm-20.83,20.83h-81.75v46.73h-20.85V46.06H118.23v45.83h-20.83V46.06H20.83V127.31H479.17V46.06ZM208.33,233.56h-41.67v41.67h41.67v-41.67Z"/>
	</g>
</symbol>


<symbol id="phone" viewBox="0 0 373.82 493.09">
	<path d="M367.42,402.01l-67.25-55.64c-7.05-5.83-17.58-4.84-23.42,2.21l-32.81,39.65c-31.15,32.02-65.56-11.12-124.49-106.68-58.07-94.17-66.7-128.36-35.31-148.82l47.56-20.59c7.68-3.33,11.25-12.33,7.92-20.01L104.47,10.89c-3.95-9.13-14.65-13.36-23.78-9.41L27.68,24.42C14.41,30.17,5.21,41.54,1.65,54.56l-.71,.06c-.05,1.15-.07,2.3-.11,3.45-1.01,5.26-1.11,10.72-.21,16.14,.55,78.13,23.5,161.04,70.45,237.18,49.1,79.62,116.59,139.09,189.87,174.16,22.97,13.46,53.18,8.68,70.67-12.46l38.16-46.12c6.21-7.51,5.15-18.74-2.36-24.95Z"/>
</symbol>


<symbol id="phone2" viewBox="0 0 373.82 493.09">
	<path d="M127.05,114.15l4.65-2.01c7.68-3.33,11.25-12.33,7.92-20.01L104.47,10.89c-3.95-9.13-14.65-13.36-23.78-9.41l-1.45,.63,47.81,112.04Z"/>
	<path d="M368.38,428.65l1.39-1.68c6.21-7.51,5.15-18.74-2.36-24.95l-67.25-55.64c-7.05-5.83-17.58-4.84-23.42,2.21l-1.47,1.78,93.1,78.29Z"/>
	<path d="M262.53,365.77l-18.59,22.46c-31.15,32.02-65.56-11.12-124.49-106.68-58.07-94.17-66.7-128.36-35.31-148.82l24.55-10.63L60.88,10.05,27.68,24.42C14.41,30.17,5.21,41.54,1.65,54.56l-.71,.06c-.05,1.15-.07,2.3-.11,3.45-1.01,5.26-1.11,10.72-.21,16.14,.55,78.13,23.5,161.04,70.45,237.18,49.1,79.62,116.59,139.09,189.87,174.16,22.97,13.46,53.18,8.68,70.67-12.46l24.02-29.03-93.1-78.29Z"/>
</symbol>


<symbol id="phone3" viewBox="0 0 477.79 498.31">
	<path d="M370.26,406.53l-67.77-56.08c-7.1-5.88-17.72-4.87-23.6,2.23l-33.06,39.96c-31.4,32.27-66.07-11.21-125.45-107.51-58.52-94.9-67.22-129.36-35.58-149.98l47.93-20.75c7.74-3.35,11.33-12.43,7.98-20.17L105.27,12.38c-3.98-9.2-14.76-13.47-23.96-9.48L27.9,26.01C14.52,31.81,5.25,43.26,1.66,56.39l-.72,.06c-.05,1.16-.07,2.32-.11,3.48-1.02,5.3-1.11,10.8-.21,16.26,.56,78.74,23.68,162.29,70.99,239.01,49.48,80.23,117.5,140.17,191.34,175.51,23.15,13.56,53.59,8.75,71.22-12.55l38.46-46.48c6.26-7.57,5.19-18.89-2.37-25.15Z"/>
	<path d="M449.41,226.64c.05,29.86-6.51,58.18-18.27,83.61l27.45,8.19c12.39-28.1,19.26-59.17,19.21-91.85C477.58,102.74,378.24,2.23,254.97,0l-3.39,28.34c109.18,.43,197.66,88.97,197.84,198.3Z"/>
	<path d="M365.74,233.74c.03,19.11-4.15,37.23-11.65,53.52l24.67,7.36c8.07-18.68,12.54-39.28,12.5-60.92-.14-82.09-64.85-148.98-145.99-152.71l-3.05,25.43c68.49,2.16,123.4,58.29,123.52,127.32Z"/>
	<path d="M289.89,246.08c.01,7.35-1.24,14.39-3.53,20.96l20.27,6.05c2.85-8.49,4.4-17.59,4.38-27.04-.07-43.57-33.11-79.38-75.48-83.88l-2.51,20.97c31.9,3.26,56.81,30.17,56.86,62.94Z"/>
</symbol>

<symbol id="phone4" viewBox="0 0 481.71 496.91">
	<path d="M370.26,405.12l-67.77-56.08c-7.1-5.88-17.72-4.87-23.6,2.23l-33.06,39.96c-31.4,32.27-66.07-11.21-125.45-107.51-58.52-94.9-67.22-129.36-35.58-149.98l47.93-20.75c7.74-3.35,11.33-12.43,7.98-20.17L105.27,10.98c-3.98-9.2-14.76-13.47-23.96-9.48L27.9,24.61C14.52,30.41,5.25,41.86,1.66,54.99l-.72,.06c-.05,1.16-.07,2.32-.11,3.48-1.02,5.3-1.11,10.8-.21,16.26,.56,78.74,23.68,162.29,70.99,239.01,49.48,80.23,117.5,140.17,191.34,175.51,23.15,13.56,53.59,8.75,71.22-12.55l38.46-46.48c6.26-7.57,5.19-18.89-2.37-25.15Z"/>
	<path d="M311.71,50h-30c-5.52,0-10-4.48-10-10V10c0-5.52,4.48-10,10-10h30c5.52,0,10,4.48,10,10v30c0,5.52-4.48,10-10,10Zm90-10V10c0-5.52-4.48-10-10-10h-30c-5.52,0-10,4.48-10,10v30c0,5.52,4.48,10,10,10h30c5.52,0,10-4.48,10-10Zm80,0V10c0-5.52-4.48-10-10-10h-30c-5.52,0-10,4.48-10,10v30c0,5.52,4.48,10,10,10h30c5.52,0,10-4.48,10-10Zm-160,160v-30c0-5.52-4.48-10-10-10h-30c-5.52,0-10,4.48-10,10v30c0,5.52,4.48,10,10,10h30c5.52,0,10-4.48,10-10Zm80,0v-30c0-5.52-4.48-10-10-10h-30c-5.52,0-10,4.48-10,10v30c0,5.52,4.48,10,10,10h30c5.52,0,10-4.48,10-10Zm0,80v-30c0-5.52-4.48-10-10-10h-30c-5.52,0-10,4.48-10,10v30c0,5.52,4.48,10,10,10h30c5.52,0,10-4.48,10-10Zm80-80v-30c0-5.52-4.48-10-10-10h-30c-5.52,0-10,4.48-10,10v30c0,5.52,4.48,10,10,10h30c5.52,0,10-4.48,10-10Zm-160-80v-30c0-5.52-4.48-10-10-10h-30c-5.52,0-10,4.48-10,10v30c0,5.52,4.48,10,10,10h30c5.52,0,10-4.48,10-10Zm80,0v-30c0-5.52-4.48-10-10-10h-30c-5.52,0-10,4.48-10,10v30c0,5.52,4.48,10,10,10h30c5.52,0,10-4.48,10-10Zm80,0v-30c0-5.52-4.48-10-10-10h-30c-5.52,0-10,4.48-10,10v30c0,5.52,4.48,10,10,10h30c5.52,0,10-4.48,10-10Z"/>
</symbol>

<symbol id="phone5" viewBox="0 0 377.3 496.5">
	<path d="M135.87,124.5l5.08-2.2c8.38-3.63,12.27-13.45,8.64-21.83L111.23,11.88c-4.31-9.95-15.98-14.57-25.93-10.26l-1.58,.69,52.15,122.2Z"/>
	<path d="M371.47,427.65l1.49-1.8c6.67-8.06,5.53-20.1-2.53-26.77l-72.14-59.69c-7.56-6.26-18.86-5.19-25.12,2.37l-1.58,1.91,99.87,83.98Z"/>
	<path d="M3.82,50.5c3.6-13.63,15.54-23.41,28.6-29.07L73.73,3.55l54.21,127.02-32.01,13.85c-20.52,13.86-19.73,37.58,38.01,131.22,31.81,51.59,67.68,106.84,90.62,109.36,3.21,.35,8.25,.01,15.09-6.89l24.09-29.12,105.57,88.78-29.55,35.71c-9.67,11.68-23.26,19.53-38.27,22.09-3.59,.61-7.21,.92-10.82,.92-11.13,0-22.12-2.89-31.79-8.47-36.91-17.71-71.65-41.23-103.27-69.93-32.77-29.75-61.5-64.46-85.36-103.17C25.13,241.77-2.63,160.38,.2,79.66c.26-7.34,1.74-22.05,3.62-29.15Zm15.85,28.28c-1.27,77.44,23.77,155.57,67.15,225.92,45.44,73.69,107.96,131.06,180.81,165.92l.72,.38c18.5,10.84,42.74,6.57,56.4-9.94l17.23-20.83-75.76-63.71-12.37,14.89c-9.56,9.82-20.13,14.17-31.43,12.93-29.01-3.19-58.14-42.41-105.06-118.5-30.42-49.33-45.69-79.9-51.04-102.22-6.12-25.48,.12-43.26,19.63-55.98l.69-.45,15.78-6.83L63.5,29.2l-23.35,10.11c-9.76,4.23-18.79,12.27-19.83,22.98-.4,4.11-.59,12.36-.66,16.49Z"/>
</symbol>

<symbol id="pin" viewBox="0 0 500 500">
	<path d="M314,146.63V47.17h4.2c8.15,0,14.81-18.92,14.81-27.06h0A14.85,14.85,0,0,0,318.24,5.3H180.37a14.85,14.85,0,0,0-14.81,14.81h0c0,8.14,6.67,27.06,14.81,27.06h4.21v99.46l-53.17,67.9v33.94h94.31l22.45,246.88,2.36,0L272.9,248.47h94.31V214.53Zm-137.42,66L221,160.27V47.17h56.68v113.1l43.66,50.82Z"/>	
</symbol>


<symbol id="plus" viewBox="0 0 500 500">
	<polygon points="281.79 0 212.4 0 212.4 212.4 0 212.4 0 281.79 212.4 281.79 212.4 494.18 281.79 494.18 281.79 281.79 494.18 281.79 494.18 212.4 281.79 212.4 281.79 0"/>
</symbol>


<symbol id="refresh" viewBox="0 0 500 500">
	<g>
		<path class="cls-1" d="M468.62,221.9a24.84,24.84,0,0,0-24.84,24.84c0,108.66-88.4,197.06-197,197.06a195.77,195.77,0,0,1-139.32-57.72l-1.26-1,32.49-32.49c7.76-7.78,5.16-14-5.8-13.85H20.13v112.7c-.12,11,6.08,13.57,13.85,5.8l36.89-36.89,2.41,1.92a245.12,245.12,0,0,0,173.45,71.25c136,0,246.74-110.7,246.74-246.75A24.84,24.84,0,0,0,468.62,221.9Z"/>
		<path class="cls-1" d="M49.69,246.74c0-108.64,88.4-197,197-197a195.82,195.82,0,0,1,138.71,57.11l-32.79,32.78c-7.76,7.77-5.17,14,5.8,13.85H471.17V40.74c.12-11-6.08-13.57-13.85-5.81L420.57,71.68l-.09-.11A245.14,245.14,0,0,0,246.73,0C110.69,0,0,110.7,0,246.74a24.85,24.85,0,1,0,49.69,0Z"/>
	</g>
</symbol>


<symbol id="revert" viewBox="0 0 500 500">
	<path d="M338.24,481.61c-127.63,48.46-270.39-15.73-318.85-143.37-10.97-28.9-16.17-58.57-16.16-87.74H28.17c0,26.23,4.68,52.9,14.55,78.89,43.61,114.88,172.09,172.64,286.96,129.03,114.88-43.62,172.65-172.09,129.03-286.97C415.1,56.57,286.63-1.19,171.75,42.42c-28.49,10.81-53.46,26.84-74.25,46.6l-19.87-15.31c23.61-23.12,52.27-41.84,85.13-54.32,127.64-48.46,270.39,15.73,318.85,143.37,48.46,127.63-15.73,270.39-143.37,318.85Z"/>
	<polygon points="28.06 29.83 148.01 125.62 27.88 160.38 28.06 29.83"/>
</symbol>



<symbol id="school" viewBox="0 0 500 500">
    <g>
      <path class="cls-1" d="M250.43,132.6c-34.52,0-62.5,27.98-62.5,62.5s27.98,62.5,62.5,62.5,62.5-27.98,62.5-62.5-27.98-62.5-62.5-62.5Zm0,101c-21.23,0-38.5-17.27-38.5-38.5s17.27-38.5,38.5-38.5,38.5,17.27,38.5,38.5-17.27,38.5-38.5,38.5Z"/>
      <rect class="cls-1" x="50.37" y="294.01" width="48.44" height="68.86"/>
      <rect class="cls-1" x="50.38" y="390.48" width="48.44" height="68.86"/>
      <rect class="cls-1" x="399.79" y="294.01" width="48.44" height="68.86"/>
      <rect class="cls-1" x="399.8" y="390.48" width="48.44" height="68.86"/>
      <path class="cls-1" d="M371.6,214.11h129.38l-64.96-23.65-64.41-23.45v-61.17h44.12l-82.65-52.91L250.43,0l-82.65,52.91-82.65,52.91h44.37v61.13l-64.53,23.5L0,214.11H129.5v19.49H.43V500H500.43V233.6h-128.83v-19.49ZM24.43,476v-218.4h105.07v218.4H24.43Zm452-218.4v218.4h-104.83v-218.4h104.83Zm-128.83,0v218.4h-34.55v-120.31c0-34.37-28.12-62.5-62.5-62.5h0c-34.37,0-62.5,28.12-62.5,62.5v120.31h-34.55V105.82h194.11v151.77Z"/>
    </g>
</symbol>

<symbol id="school2" viewBox="0 0 500 500">
    <g>
      <path class="cls-1" d="M250.43,108.6c-34.52,0-62.5,27.98-62.5,62.5s27.98,62.5,62.5,62.5,62.5-27.98,62.5-62.5-27.98-62.5-62.5-62.5Zm0,101c-21.23,0-38.5-17.27-38.5-38.5s17.27-38.5,38.5-38.5,38.5,17.27,38.5,38.5-17.27,38.5-38.5,38.5Z"/>
      <path class="cls-1" d="M371.6,214.11h129.38l-64.96-23.65-64.41-23.45v-49.22l-.93-.9-33.56-32.65L250.55,0l-86.57,84.22-33.56,32.65-.93,.9v49.18l-64.53,23.5L0,214.11H129.5v19.49H.43V500H500.43V233.6h-128.83v-19.49ZM24.43,476v-218.4h105.07v218.4H24.43Zm452-218.4v218.4h-104.83v-218.4h104.83Zm-128.83,0v218.4h-34.55v-120.31c0-34.37-28.12-62.5-62.5-62.5h0c-34.37,0-62.5,28.12-62.5,62.5v120.31h-34.55V127.91l11.34-11.04,15.88-15.45L250.55,33.48l69.83,67.94,15.88,15.45,11.34,11.04v129.69Z"/>
      <rect class="cls-1" x="50.37" y="294.01" width="48.44" height="68.86"/>
      <rect class="cls-1" x="50.38" y="390.48" width="48.44" height="68.86"/>
      <rect class="cls-1" x="399.79" y="294.01" width="48.44" height="68.86"/>
      <rect class="cls-1" x="399.8" y="390.48" width="48.44" height="68.86"/>
    </g>
</symbol>


<symbol id="search" viewBox="0 0 500 500">
	<path d="M497.33,461.07l-37.9,36.69-136.28-140C289.75,384.9,252.83,397,206.67,397c-107.7,0-195-88.36-195-197.36S99,2.24,206.67,2.24s195,88.36,195,197.37c0,47.41-12.14,87.14-39.67,121.18ZM206.67,47.47c-83,0-150.31,69.81-150.31,152.13,0,84,67.3,152.12,150.31,152.12S357,283.61,357,199.6C357,117.28,289.67,47.47,206.67,47.47Z" />
</symbol>


<symbol id="session" viewBox="0 0 500 500">
	<g><path id="Path_28" data-name="Path 28" class="cls-1" d="M190.86,232.23a125.43,125.43,0,0,1,125.85-125c.67,0,1.33,0,2,0A125.43,125.43,0,0,1,446.57,230.19c0,.67,0,1.34,0,2a127.39,127.39,0,0,1-18.65,66.53h36.62V0H0V298.75H209.51a127.26,127.26,0,0,1-18.65-66.52M83.42,264.52a21.24,21.24,0,0,1,0-42.45,19.67,19.67,0,0,1,20.24,19.09,18.7,18.7,0,0,1,0,2.12,19.87,19.87,0,0,1-18.47,21.18c-.58,0-1.15.05-1.72,0m11.63-70.18H71.78L67,30H116.4Z"/><path id="Path_29" data-name="Path 29" class="cls-1" d="M318.77,132.87a100,100,0,0,0-102,98c0,.55,0,1.1,0,1.64a102,102,0,0,0,204,0,100,100,0,0,0-100.34-99.65l-1.64,0"/><path id="Path_30" data-name="Path 30" class="cls-1" d="M393.61,327.84a107.14,107.14,0,0,1-149.73,0,199.88,199.88,0,0,0-106.39,161H500a199.88,199.88,0,0,0-106.39-161"/></g>
</symbol>


<symbol id="time" viewBox="0 0 500 500">
	<g>
	<circle id="Spindle" class="cls-1" cx="247.69" cy="247.68" r="21.29"/>
	<rect id="Minute" class="cls-1" x="150.67" y="80.55" width="24.91" height="160.68" transform="translate(-65.98 162.57) rotate(-45.02)"/>
	<rect id="Hour_hand" data-name="Hour hand" class="cls-1" x="307.15" y="127.93" width="23.83" height="111.32" transform="translate(223.12 -171.8) rotate(44.98)"/>
	<circle id="_9" data-name="9" class="cls-1" cx="53.37" cy="247.38" r="11.05"/>
	<circle id="_6" data-name="6" class="cls-1" cx="247.32" cy="441.12" r="11.05"/>
	<circle id="_3" data-name="3" class="cls-1" cx="441.26" cy="247.38" r="11.05"/>
	<circle id="_12" data-name="12" class="cls-1" cx="247.32" cy="53.19" r="11.05"/>
	<path class="cls-1" d="M315.71,9.73c-131.19-37.8-268.18,37.91-306,169.1A246,246,0,0,0,3.21,286.92l24.18-6.71a221.61,221.61,0,0,1,6.31-94.47C67.72,67.66,191-.47,309.09,33.54S495.3,190.85,461.28,308.93,304,495.14,185.89,461.12a221.8,221.8,0,0,1-77.82-40.34l-18.54,16.9a246.29,246.29,0,0,0,89.3,47.13C310,522.61,447,446.9,484.81,315.71S446.9,47.52,315.71,9.73Z"/>
	<polygon id="Arrow" class="cls-1" points="53.78 469.38 146.74 392.83 52.09 366.98 53.78 469.38"/></g>
</symbol>


<symbol id="trainer" viewBox="0 0 500 500">
	<path d="M398.1,319.35c0,5.43-.3,10.82-.89,16.1-9.54-1.48-19.3-2.24-29.25-2.24-43.53,0-83.63,14.56-115.75,39.09-32.12-24.53-72.24-39.09-115.77-39.09-10.85,0-21.48,.91-31.85,2.66-.61-5.41-.93-10.93-.93-16.52,0-19.35,3.73-37.83,10.52-54.74l137.27,68.64,136.32-68.16c6.67,16.79,10.33,35.1,10.33,54.26Z"/>
	<polygon points="491.73 192.23 251.45 312.37 9.27 191.28 249.55 71.14 491.73 192.23"/>
	<polygon points="427.35 188.53 412.78 419.57 457.29 419.57 442.72 188.53 427.35 188.53"/>
</symbol>

<symbol id="training-search2" viewBox="0 0 500 500">
	<g>
		<path d="M402.97,257.23c0,5.63-.31,11.21-.92,16.69-9.89-1.53-20-2.32-30.31-2.32-45.11,0-86.67,15.09-119.96,40.51-33.29-25.42-74.87-40.51-119.98-40.51-11.24,0-22.26,.94-33.01,2.76-.63-5.61-.96-11.33-.96-17.12,0-20.05,3.87-39.21,10.9-56.73l142.26,71.14,141.28-70.64c6.91,17.4,10.71,36.38,10.71,56.23Z"/>
		<polygon points="500 125.49 250.98 250 0 124.51 249.02 0 500 125.49"/>
		<polygon points="39.55 121.66 24.46 361.09 70.58 361.09 55.48 121.66 39.55 121.66"/>
		<path d="M449.85,426.37c8.41-11.89,12.5-25.87,12.5-42.58,0-41.35-33.26-74.99-74.15-74.99s-74.15,33.64-74.15,74.99,33.26,74.99,74.15,74.99c16.04,0,29.13-3.91,40.82-12.25l48.72,50.05,20.61-19.95-48.5-50.26Zm-13.35-42.58c0,26.99-21.67,48.95-48.3,48.95s-48.3-21.96-48.3-48.95,22.12-48.95,48.3-48.95,48.3,22.42,48.3,48.95Z"/>
	</g>
</symbol>

<symbol id="training-search1" viewBox="0 0 500 500">
	<g>
		<path d="M395.9,252.72c0,5.53-.31,11.02-.91,16.39-9.71-1.51-19.65-2.28-29.78-2.28-44.32,0-85.15,14.82-117.85,39.8-32.7-24.98-73.55-39.8-117.87-39.8-11.05,0-21.87,.93-32.43,2.71-.62-5.51-.95-11.13-.95-16.82,0-19.7,3.8-38.52,10.71-55.74l139.77,69.89,138.8-69.4c6.79,17.1,10.52,35.74,10.52,55.25Z"/>
		<polygon points="491.23 123.29 246.58 245.61 0 122.32 244.65 0 491.23 123.29"/>
		<polygon points="38.86 119.52 24.03 354.76 69.34 354.76 54.51 119.52 38.86 119.52"/>
		<path d="M452.75,415.75c7.43-12.19,11.06-26.23,11.06-42.63,0-45.44-36.58-82.41-81.55-82.41s-81.55,36.97-81.55,82.41,36.58,82.41,81.55,82.41c15.71,0,28.89-3.43,40.72-10.7l50.31,51.69,29.67-28.72-50.21-52.04Zm-27.37-42.63c0,24.14-19.34,43.78-43.12,43.78s-43.12-19.64-43.12-43.78,19.75-43.79,43.12-43.79,43.12,20.05,43.12,43.79Z"/>
	</g>
</symbol>

<symbol id="timesheet-search" viewBox="0 0 494.54 494.53">
	<g>
		<path d="M33.7,185.74c-9.14,31.73-10.91,63.83-6.31,94.47l-24.18,6.72c-5.72-34.99-3.95-71.76,6.52-108.1C47.53,47.64,184.52-28.07,315.71,9.73c131.19,37.8,206.9,174.79,169.1,305.98-1.71,5.94-3.63,11.77-5.74,17.48-4.41-9.72-10.22-18.66-17.16-26.57,32.48-117.37-35.52-239.27-152.83-273.07C191.02-.47,67.72,67.66,33.7,185.74Zm229.04,46.88c-8.32-8.31-21.8-8.31-30.11,.01s-8.31,21.8,.01,30.11,21.8,8.31,30.11-.01,8.31-21.8-.01-30.11Zm189.57,14.76c0-6.1-4.95-11.05-11.05-11.05s-11.05,4.95-11.05,11.05,4.95,11.05,11.05,11.05,11.05-4.95,11.05-11.05Zm-102.34-111.59l-78.68,78.75,16.86,16.84,78.68-78.75-16.86-16.84ZM64.42,247.38c0-6.1-4.95-11.05-11.05-11.05s-11.05,4.95-11.05,11.05,4.95,11.05,11.05,11.05,11.05-4.95,11.05-11.05Zm248.54,212.6c-39.97,12.35-83.87,13.59-127.07,1.14-28.23-8.13-53.6-21.38-75.4-38.44l36.25-29.85-94.65-25.85,1.69,102.4,37.14-30.58c25.14,20.55,54.74,36.45,87.91,46.01,55.1,15.88,111.22,11.72,160.59-8.15-9.64-4.25-18.54-9.89-26.46-16.68ZM97.49,112.91l113.66,113.57,17.61-17.62L115.1,95.29l-17.61,17.62ZM236.26,441.12c0,6.1,4.95,11.05,11.05,11.05s11.05-4.95,11.05-11.05-4.95-11.05-11.05-11.05-11.05,4.95-11.05,11.05Zm22.11-387.93c0-6.1-4.95-11.05-11.05-11.05s-11.05,4.95-11.05,11.05,4.95,11.05,11.05,11.05,11.05-4.95,11.05-11.05Z"/>
		<path d="M445.54,422.64c8.41-11.89,12.5-25.87,12.5-42.58,0-41.35-33.26-74.99-74.15-74.99s-74.15,33.64-74.15,74.99,33.26,74.99,74.15,74.99c16.04,0,29.13-3.91,40.82-12.25l48.72,50.05,20.61-19.95-48.5-50.26h0Zm-13.35-42.58c0,26.99-21.67,48.95-48.3,48.95s-48.3-21.96-48.3-48.95,22.12-48.95,48.3-48.95,48.3,22.42,48.3,48.95Z"/>
	</g>
</symbol>


<symbol id="toggle-off" viewBox="0 0 500 250">
	<circle cx="123.91" cy="125.17" r="90"/>
	<path d="M375,0H125C55.96,0,0,55.96,0,125s55.96,125,125,125h250c69.04,0,125-55.96,125-125S444.04,0,375,0Zm81.32,206.32c-21.72,21.72-50.6,33.68-81.32,33.68H125c-30.72,0-59.6-11.96-81.32-33.68S10,155.72,10,125s11.96-59.6,33.68-81.32S94.28,10,125,10h250c30.72,0,59.6,11.96,81.32,33.68,21.72,21.72,33.68,50.6,33.68,81.32s-11.96,59.6-33.68,81.32Z"/>
</symbol>

<symbol id="toggle-on" viewBox="0 0 500 250">
	<path d="M375,0H125C55.96,0,0,55.96,0,125s55.96,125,125,125h250c69.04,0,125-55.96,125-125S444.04,0,375,0Zm0,218.74c-52.47,0-95-42.53-95-95s42.53-95,95-95,95,42.53,95,95-42.53,95-95,95Z"/>
</symbol>


<symbol id="training-search" viewBox="0 0 500 500">
	<g>
		<path d="M388.83,248.21c0,5.43-.3,10.82-.89,16.1-9.54-1.48-19.3-2.24-29.25-2.24-43.53,0-83.63,14.56-115.75,39.09-32.12-24.53-72.24-39.09-115.77-39.09-10.85,0-21.48,.91-31.85,2.66-.61-5.41-.93-10.93-.93-16.52,0-19.35,3.73-37.83,10.52-54.74l137.27,68.64,136.32-68.16c6.67,16.79,10.33,35.1,10.33,54.26Z"/>
		<polygon points="482.46 121.09 242.18 241.23 0 120.14 240.28 0 482.46 121.09"/>
		<polygon points="38.16 117.39 23.6 348.43 68.1 348.43 53.54 117.39 38.16 117.39"/>
		<path d="M478.51,459.18l-13.44,13.01-48.33-49.65c-11.84,9.63-24.94,13.91-41.31,13.91-38.19,0-69.15-31.33-69.15-69.99s30.96-69.99,69.15-69.99,69.15,31.33,69.15,69.99c0,16.81-4.31,30.9-14.07,42.98l48,49.75Zm-103.08-146.68c-29.44,0-53.3,24.76-53.3,53.95s23.87,53.95,53.3,53.95,53.3-24.16,53.3-53.95-23.86-53.95-53.3-53.95Z"/>
	</g>
</symbol>


<symbol id="triangle-solid" viewBox="0 0 500 500">
	<polygon points="248.75 0 497.5 430.85 0 430.85 248.75 0"/>
</symbol>


<symbol id="upload" viewBox="0 0 500 500">
	<g>
		<path d="M452.37,295.7V427.11a15,15,0,0,1-15,15H54.89a15,15,0,0,1-15-15V295.7H0V452.23a30.09,30.09,0,0,0,30,30H462.26a30.09,30.09,0,0,0,30-30V295.7Z"/>
		<path d="M246.13,354.14a20.3,20.3,0,0,1-20.31-20.3V20.31a20.31,20.31,0,1,1,40.61,0V333.84A20.3,20.3,0,0,1,246.13,354.14Z"/>
		<path d="M122.19,171.33a20.3,20.3,0,0,1-14.73-34.27L231.39,6.34a20.3,20.3,0,1,1,29.47,27.94L136.93,165A20.26,20.26,0,0,1,122.19,171.33Z"/>
		<path d="M370.46,171.33A20.26,20.26,0,0,1,355.72,165L231.79,34.28A20.3,20.3,0,1,1,261.26,6.34L385.19,137.06a20.3,20.3,0,0,1-14.73,34.27Z"/>
	</g>
</symbol>


<symbol id="user-circle" viewBox="0 0 500 500">
	<path d="M250,500C111.93,500,0,388.07,0,250S111.93,0,250,0,500,111.93,500,250,388.07,500,250,500Zm0-473.68C126.46,26.32,26.32,126.46,26.32,250c0,48.58,15.49,93.53,41.79,132.05,27.83-60.42,65-87.33,101.17-105.38a121.22,121.22,0,0,0,81.38,31.22c31.12,0,61-11.69,81-30.92,41.38,19.1,77.12,46.4,106.56,93.89A222.65,222.65,0,0,0,473.68,250C473.68,126.46,373.54,26.32,250,26.32Zm-.66,257.89a102,102,0,0,1-102-102c0-56.32,45.65-99.64,102-99.64s102,43.32,102,99.64A102,102,0,0,1,249.34,284.21Z"/>
</symbol>

<symbol id="user-circle-x" viewBox="0 0 500 500">
	<path class="cls-1" d="M249.34,82.6c-56.32,0-102,43.32-102,99.64a102,102,0,0,0,204,0C351.32,125.92,305.66,82.6,249.34,82.6Z"/>
	<path class="cls-1" d="M250,0C111.93,0,0,111.93,0,250S111.93,500,250,500,500,388.07,500,250,388.07,0,250,0Zm58.94,446.47-14.68,14.68-44.92-44.92-44.92,44.92-14.67-14.68,44.92-44.92-44.92-44.92L204.42,342l44.92,44.92L294.26,342l14.68,14.67L264,401.55ZM331.69,277c-20,19.23-49.91,30.92-81,30.92a121.22,121.22,0,0,1-81.38-31.22c-36.2,18.05-73.34,45-101.17,105.38-26.3-38.52-41.79-83.47-41.79-132C26.32,126.46,126.46,26.32,250,26.32S473.68,126.46,473.68,250a222.65,222.65,0,0,1-35.43,120.86C408.81,323.37,373.07,296.07,331.69,277Z"/>
</symbol>


<symbol id="users" viewBox="0 0 500 500">
	<g>
		<path d="M408.86,325.89c24.54,33.62,34.73,76.13,31.15,129.93-57.98,22.04-124.16,33.69-191.44,33.69s-133.46-11.65-191.44-33.69c-3.58-53.8,6.61-96.32,31.15-129.93,20.87-28.59,49.1-46.05,74.12-59.33,.09,.09,.19,.19,.28,.28l.44,.44c22.79,22.79,53.1,35.55,85.34,35.94h.24c32.24-.38,62.55-13.15,85.37-35.97l.43-.43c.08-.09,.17-.17,.25-.26,25.01,13.28,53.25,30.74,74.12,59.33ZM248.13,79.87c-.31,0-.61-.01-.9-.01h-2.67l-5.11,.54c-23.26,2.39-45.11,12.98-61.54,29.81-18.44,18.9-28.6,43.85-28.6,70.26s10.16,51.37,28.6,70.26c16.42,16.83,38.28,27.41,61.54,29.81l5.22,.54h2.56c.3,0,.6,0,.9-.01h.85c.32,0,.61,.01,.91,.01h2.69l5.12-.54c23.26-2.39,45.11-12.98,61.54-29.81,18.44-18.9,28.6-43.85,28.6-70.26s-10.16-51.37-28.6-70.26c-16.42-16.83-38.28-27.42-61.54-29.81l-5.22-.54h-2.57c-.3,0-.59,0-.89,.01h-.89Z"/>
		<path d="M332.7,97.06c-11.66-11.95-25.44-21.14-40.49-27.25C293.03,31.74,323.63,1.01,361.65,.02v-.02c.31,0,.63,0,.94,.01,.31,0,.63-.01,.94-.01V.02c38.54,1,69.48,32.55,69.48,71.33s-30.94,70.34-69.48,71.33v.02h0c-.31,0-.63,0-.94-.01-.31,0-.63,.01-.94,.01v-.02c-.37,0-.74-.04-1.11-.06-5.63-16.92-15.06-32.47-27.84-45.57Zm90.15,33.62c-.3,.29-.62,.62-.93,.94h0c-15.98,15.98-36.73,24.26-57.66,24.9,1.58,7.8,2.4,15.82,2.4,23.95,0,25.36-7.89,49.59-22.49,69.79,17.82,9.49,37.16,21.03,54.86,36.95,35.5-3.16,68.82-10.88,98.56-22.25,5.87-85.35-39.51-115.65-74.74-134.28Z"/>
		<path d="M137.56,142.63c-.37,.02-.74,.05-1.11,.06v.02c-.31,0-.63,0-.94-.01-.31,0-.63,.01-.94,.01h0v-.02c-38.54-1-69.48-32.55-69.48-71.33,0-38.78,30.94-70.34,69.48-71.33V0c.31,0,.63,0,.94,.01C135.82,0,136.13,0,136.45,0V.02c38.02,.98,68.62,31.72,69.44,69.78-15.05,6.12-28.82,15.31-40.49,27.25-12.79,13.1-22.21,28.65-27.84,45.57ZM.52,264.97c29.74,11.36,63.06,19.08,98.56,22.25,17.71-15.93,37.05-27.46,54.86-36.95-14.6-20.21-22.49-44.43-22.49-69.79,0-8.13,.82-16.15,2.4-23.95-20.94-.64-41.68-8.92-57.66-24.9h0c-.32-.32-.64-.65-.93-.94C40.03,149.32-5.35,179.62,.52,264.97Z"/>
	</g>
</symbol>

<symbol id="user-search" viewBox="0 0 500 500">
	<g>
		<path d="M301.03,457.08c-29.22,5.65-62.83,9.71-99.09,9.71-77.36,0-141.77-18.51-177.27-31.42,.38-98.03,80.25-177.66,178.37-177.66,42.34,0,81.27,14.83,111.89,39.57,6.43-5.59,13.49-10.46,21.05-14.51-35.65-30.95-82.14-49.73-132.94-49.73C91.09,233.03,0,324.12,0,436.08c0,2.59,.06,5.34,.19,8.41l.33,8.1,7.57,2.91c34.91,13.43,106.51,35.96,193.86,35.96,45.27,0,86.59-6.05,120.88-13.74-8.13-5.9-15.45-12.84-21.79-20.64Z"/>
		<path d="M451.04,426.95c8.41-11.89,12.5-25.87,12.5-42.58,0-41.35-33.26-74.99-74.15-74.99s-74.15,33.64-74.15,74.99,33.26,74.99,74.15,74.99c16.04,0,29.13-3.91,40.82-12.25l48.72,50.05,20.61-19.95-48.5-50.26Zm-13.35-42.58c0,26.99-21.67,48.95-48.3,48.95s-48.3-21.96-48.3-48.95,22.12-48.95,48.3-48.95,48.3,22.42,48.3,48.95Z"/>
		<path d="M203.05,256.92c-70.83,0-128.46-57.63-128.46-128.46S132.21,0,203.05,0s128.46,57.63,128.46,128.46-57.63,128.46-128.46,128.46Zm0-232.93c-57.61,0-104.47,46.87-104.47,104.47s46.87,104.47,104.47,104.47,104.47-46.87,104.47-104.47S260.65,23.99,203.05,23.99Z"/>
	</g>
</symbol>

<symbol id="users2" viewBox="0 0 500 500">
	<g>
		<path d="M370.64,328.15c25.77,35.31,36.48,79.95,32.72,136.47-60.9,23.15-130.4,35.38-201.07,35.38S62.13,487.77,1.23,464.62c-3.76-56.51,6.95-101.16,32.72-136.47,21.92-30.03,51.57-48.37,77.84-62.32,.1,.1,.2,.2,.29,.3l.46,.46c23.94,23.94,55.77,37.34,89.63,37.74h.25c33.86-.4,65.7-13.81,89.66-37.78l.45-.46c.09-.09,.18-.18,.27-.27,26.27,13.95,55.92,32.29,77.84,62.32ZM201.84,69.76c-.33,0-.64-.01-.95-.01h-2.81l-5.37,.56c-24.43,2.51-47.38,13.63-64.63,31.31-19.37,19.85-30.04,46.06-30.04,73.8s10.67,53.95,30.04,73.8c17.25,17.67,40.2,28.79,64.63,31.31l5.49,.56h2.69c.32,0,.63,0,.95-.01h.9c.33,0,.64,.01,.95,.01h2.82l5.38-.56c24.43-2.51,47.38-13.63,64.63-31.31,19.37-19.85,30.04-46.06,30.04-73.8s-10.67-53.95-30.04-73.8c-17.25-17.67-40.2-28.79-64.63-31.31l-5.48-.56h-2.7c-.31,0-.62,0-.94,.01h-.93Z"/>
		<polygon points="497.72 72.59 423.34 72.59 423.34 0 370.98 0 370.98 72.59 296.64 72.59 296.64 125.04 370.98 125.04 370.98 199.38 423.34 199.38 423.34 125.04 497.72 125.04 497.72 72.59"/>
	</g>
</symbol>

<symbol id="users3" viewBox="0 0 500 500">
	<g>
		<path d="M270.36,66.02c2.83-15.56,10.2-29.93,21.46-41.47,13.08-13.4,30.49-21.83,49.01-23.74l4.07-.42h2.13c.24,0,.47,0,.72,0h.71c.24,0,.47,0,.71,0h2.05l4.15,.43c18.52,1.91,35.93,10.34,49.01,23.74,14.69,15.05,22.78,34.93,22.78,55.96s-8.09,40.91-22.78,55.96c-13.08,13.4-30.49,21.83-49.01,23.74l-4.08,.42h-2.14c-.24,0-.47,0-.72,0h-.68c-.24,0-.48,0-.72,0h-2.04l-4.16-.43c-5.28-.54-10.46-1.63-15.49-3.2-2.95-27.97-15.12-54-35.02-74.39-6.1-6.25-12.8-11.8-19.96-16.61Zm205.4,130.32c-16.62-22.77-39.11-36.68-59.03-47.26-.07,.07-.13,.14-.2,.2l-.34,.35c-18.18,18.17-42.32,28.34-67.99,28.65h-.19c-7.52-.09-14.91-1.03-22.06-2.77-.99,24.72-9.12,48.24-23.4,68.1,27.93,14.89,59.58,34.61,83.75,67.73,3.06,4.19,5.92,8.5,8.6,12.92,37.16-3.79,73.05-12.03,105.68-24.44,2.85-42.86-5.27-76.71-24.81-103.49Z"/>
		<path d="M370.14,323.12c25.77,35.31,36.48,79.95,32.72,136.47-60.9,23.15-130.4,35.38-201.07,35.38S61.63,482.74,.73,459.59c-3.76-56.51,6.95-101.16,32.72-136.47,21.92-30.03,51.57-48.37,77.84-62.32,.1,.1,.2,.2,.29,.3l.46,.46c23.94,23.94,55.77,37.34,89.63,37.74h.25c33.86-.4,65.7-13.81,89.66-37.78l.45-.46c.09-.09,.18-.18,.27-.27,26.27,13.95,55.92,32.29,77.84,62.32ZM201.34,64.73c-.33,0-.64-.01-.95-.01h-2.81l-5.37,.56c-24.43,2.51-47.38,13.63-64.63,31.31-19.37,19.85-30.04,46.06-30.04,73.8s10.67,53.95,30.04,73.8c17.25,17.67,40.2,28.79,64.63,31.31l5.49,.56h2.69c.32,0,.63,0,.95-.01h.9c.33,0,.64,.01,.95,.01h2.82l5.38-.56c24.43-2.51,47.38-13.63,64.63-31.31,19.37-19.85,30.04-46.06,30.04-73.8s-10.67-53.95-30.04-73.8c-17.25-17.67-40.2-28.79-64.63-31.31l-5.48-.56h-2.7c-.31,0-.62,0-.94,.01h-.93Z"/>
	</g>
</symbol>

<symbol id="users4" viewBox="0 0 500 500">
	<path d="M370.14,316.46c25.77,35.31,36.48,79.95,32.72,136.47-60.9,23.15-130.4,35.38-201.07,35.38S61.63,476.07,.73,452.93c-3.76-56.51,6.95-101.16,32.72-136.47,21.92-30.03,51.57-48.37,77.84-62.32,.1,.1,.2,.2,.29,.3l.46,.46c23.94,23.94,55.77,37.34,89.63,37.74h.25c33.86-.4,65.7-13.81,89.66-37.78l.45-.46c.09-.09,.18-.18,.27-.27,26.27,13.95,55.92,32.29,77.84,62.32ZM201.34,58.07c-.33,0-.64-.01-.95-.01h-2.81l-5.37,.56c-24.43,2.51-47.38,13.63-64.63,31.31-19.37,19.85-30.04,46.06-30.04,73.8s10.67,53.95,30.04,73.8c17.25,17.67,40.2,28.79,64.63,31.31l5.49,.56h2.69c.32,0,.63,0,.95-.01h.9c.33,0,.64,.01,.95,.01h2.82l5.38-.56c24.43-2.51,47.38-13.63,64.63-31.31,19.37-19.85,30.04-46.06,30.04-73.8s-10.67-53.95-30.04-73.8c-17.25-17.67-40.2-28.79-64.63-31.31l-5.48-.56h-2.7c-.31,0-.62,0-.94,.01h-.93Z"/><path class="c" d="M472.97,171.64c-14.75-20.21-33.6-32.76-50.79-42.22,8.57-13.4,13.17-28.99,13.17-45.24,0-22.1-8.5-42.98-23.93-58.79-13.74-14.08-32.04-22.94-51.52-24.94l-3.49-.36-.86-.09h-2.58c-.28,0-.56,0-.84,0h-.07c-.31,0-.6,0-.89,0h-2.69l-.82,.1-3.42,.35c-19.48,2-37.78,10.86-51.52,24.94-8.21,8.41-14.48,18.3-18.54,29.12,4.98,3.17,9.72,6.67,14.21,10.47,3.07-10.37,8.62-19.91,16.37-27.85,11-11.27,25.63-18.36,41.2-19.96l3.42-.35h1.79c.2,0,.4,0,.6,0h.6c.2,0,.4,0,.6,0h1.72l3.49,.36c15.57,1.6,30.21,8.69,41.2,19.96,12.35,12.65,19.15,29.36,19.15,47.05s-6.8,34.39-19.15,47.05c-11,11.27-25.63,18.36-41.2,19.96l-3.43,.35h-1.8c-.2,0-.4,0-.61,0h-.57c-.2,0-.4,0-.6,0h-1.72l-3.5-.36c-4.32-.44-8.55-1.33-12.67-2.59,.58,4.96,.89,10.01,.89,15.13,0,.16,0,.32,0,.49,5.78,1.35,11.75,2.09,17.82,2.16h.16c21.59-.26,41.88-8.81,57.16-24.08l.29-.29c.06-.06,.11-.12,.17-.17,16.75,8.89,35.65,20.58,49.63,39.73,16.43,22.51,23.26,50.97,20.86,87-26.22,9.96-78.37,21.18-108.13,24.54,2.82,4.73,5.45,8.17,10.89,13.96,30.03-3.67,76.8-12.74,103.21-22.78l10.09-3.83,.72-10.77c2.67-40.13-5.2-72.19-24.05-98.03Z"/>
</symbol>




<symbol id="world" viewBox="0 0 500 500">
	<g><path class="cls-1" d="M249.64,0c-72.2,0-130.73,111.91-130.73,250s58.53,250,130.73,250S380.36,388,380.36,250,321.83,0,249.64,0Zm.93,474.75c-58.93,0-107.62-112.36-107.62-225s48.69-225,107.62-225,105.76,112.3,105.76,225S309.49,474.77,250.57,474.77Z"/>
	<path class="cls-1" d="M250,0C111.93,0,0,111.93,0,250S111.93,500,250,500,500,388.07,500,250,388.07,0,250,0Zm0,474.77c-124.27,0-225-100.74-225-225s100.73-225,225-225,225,100.73,225,225S374.27,474.77,250,474.77Z"/>
	<rect class="cls-1" x="25" y="152.06" width="450" height="29.87"/>
	<rect class="cls-1" x="25" y="314.23" width="450" height="29.87"/></g>
</symbol>


</svg>
