<?xml version="1.0" encoding="UTF-8"?><svg id="a" xmlns="http://www.w3.org/2000/svg" viewBox="0 0 500 500"><defs><style>.c{fill:#333;}</style></defs><g id="b"><path class="c" d="M250,0C111.93,0,0,111.93,0,250s111.93,250,250,250,250-111.93,250-250S388.07,0,250,0Zm0,474.77c-124.27,0-225-100.73-225-225S125.73,24.77,250,24.77s225,100.73,225,225-100.73,225-225,225Z"/><path class="c" d="M78.02,265.85l23.93-17.66,99.18,62.72S338.53,124.79,384.33,106c42.69-17.51,41.62-10.07,41.62-10.07,0,0-68,83.68-93.61,122.35-29.6,44.7-121.67,201.21-121.67,201.21,0,0-37.56-44.27-65.26-78.77-25-31.14-67.39-74.87-67.39-74.87Z"/></g></svg>