<svg xmlns="http://www.w3.org/2000/svg" viewBox="0 0 211.4 211.41"><defs><style>.cls-1{fill:#000000;fill-rule:evenodd;}.cls-2{fill:#fff;}</style></defs><g id="Layer_2" data-name="Layer 2"><g id="Layer_1-2" data-name="Layer 1"><path class="cls-1" d="M105.7,0A105.71,105.71,0,1,1,0,105.7,105.7,105.7,0,0,1,105.7,0Z"/><path class="cls-2" d="M114.07,83.47l1.69,1.16q-1,11.64-1,29.61v20.1q0,1.95.35,12.58t.76,12.41a5.09,5.09,0,0,0,1.2,2.58,3.68,3.68,0,0,0,2,1c.76.15,4,.4,9.6.76l.8.71v3.73l-.71.8q-11.11-.7-21.43-.71T86,168.93l-.8-.8V164.4l.8-.71c5.75-.36,9-.62,9.74-.8a4.16,4.16,0,0,0,2-1.11,4.84,4.84,0,0,0,1.15-2.58q.32-1.74.71-11.48t.4-14.71V115.49c0-2.37-.12-5.61-.35-9.7s-.43-6.61-.58-7.56a2.78,2.78,0,0,0-1.38-2.09q-1.16-.66-4.62-.66l-7.47-.09-.8-.71V90.85l.71-.71Q102.42,88.1,114.07,83.47Zm-7.55-39.75a10,10,0,0,1,10,10.05,9.57,9.57,0,0,1-2.93,7,9.69,9.69,0,0,1-7.11,2.94,9.86,9.86,0,0,1-7.08-2.89,9.5,9.5,0,0,1-3-7.07,10.07,10.07,0,0,1,10-10.05Z"/></g></g></svg>