<svg xmlns="http://www.w3.org/2000/svg" viewBox="0 0 493.47 493.49"><defs><style>.cls-1{fill:#010101;}</style></defs><g id="Layer_2" data-name="Layer 2"><g id="Pin"><path class="cls-1" d="M468.62,221.9a24.84,24.84,0,0,0-24.84,24.84c0,108.66-88.4,197.06-197,197.06a195.77,195.77,0,0,1-139.32-57.72l-1.26-1,32.49-32.49c7.76-7.78,5.16-14-5.8-13.85H20.13v112.7c-.12,11,6.08,13.57,13.85,5.8l36.89-36.89,2.41,1.92a245.12,245.12,0,0,0,173.45,71.25c136,0,246.74-110.7,246.74-246.75A24.84,24.84,0,0,0,468.62,221.9Z"/><path class="cls-1" d="M49.69,246.74c0-108.64,88.4-197,197-197a195.82,195.82,0,0,1,138.71,57.11l-32.79,32.78c-7.76,7.77-5.17,14,5.8,13.85H471.17V40.74c.12-11-6.08-13.57-13.85-5.81L420.57,71.68l-.09-.11A245.14,245.14,0,0,0,246.73,0C110.69,0,0,110.7,0,246.74a24.85,24.85,0,1,0,49.69,0Z"/></g></g></svg>