<svg id="Layer_1" data-name="Layer 1" xmlns="http://www.w3.org/2000/svg" viewBox="0 0 500 500"><defs><style>.cls-1{fill:#1d1d1b;}</style></defs>
<path id="bin" d="M363.06,128.24h-334V464.86A34.11,34.11,0,0,0,63.2,499H328.73a34.11,34.11,0,0,0,34.12-34.12S363.06,133.52,363.06,128.24ZM129.29,443.33H84.37L84.5,173.9h44.91Zm89,0H173.39l.12-269.43h44.91Zm88.58,0H262l.13-269.43H307Z"/><path id="lid" d="M392.15,50.39V62.87a19.87,19.87,0,0,1-19.88,19.87H19.88A19.88,19.88,0,0,1,0,62.87V50.39A19.87,19.87,0,0,1,19.88,30.51H169.25a19.87,19.87,0,0,1-1-6.29V20.3A20.3,20.3,0,0,1,188.55,0h15a20.3,20.3,0,0,1,20.3,20.3v3.92a19.87,19.87,0,0,1-1,6.29H372.27A19.87,19.87,0,0,1,392.15,50.39Z"/>
</svg>