<svg xmlns="http://www.w3.org/2000/svg" viewBox="0 0 497.28 358.85"><defs><style>.cls-1{fill:#1d1d1b;}</style></defs><g id="Layer_2" data-name="Layer 2"><g id="icons"><path class="cls-1" d="M394.09,289a185.58,185.58,0,0,1-290.18,0c12.16-45.52,41.44-83,79.62-103.21.33.35.67.7,1,1a91.16,91.16,0,0,0,128.92,0c.34-.34.68-.69,1-1C352.65,206,381.93,243.46,394.09,289ZM249,198.66a76.32,76.32,0,1,0-76.32-76.31A76.31,76.31,0,0,0,249,198.66Z"/><path class="cls-1" d="M173.46,176a90.74,90.74,0,0,1-15.66-42.61,77.22,77.22,0,0,1-89.55-14.23l-.86-.88C35.08,135.43,10.3,167.11,0,205.64a156.93,156.93,0,0,0,97.37,57.08C112.92,225.48,139.71,194.72,173.46,176Z"/><path class="cls-1" d="M122.81,129.2a64.22,64.22,0,0,0,34.67-10.11,91,91,0,0,1,29.48-62,64.59,64.59,0,1,0-64.15,72.12Z"/><path class="cls-1" d="M323.82,176a90.62,90.62,0,0,0,15.65-42.61A77.23,77.23,0,0,0,429,119.16l.86-.88c32.31,17.15,57.09,48.83,67.39,87.36a156.93,156.93,0,0,1-97.37,57.08C384.36,225.48,357.57,194.72,323.82,176Z"/><path class="cls-1" d="M374.47,129.2a64.28,64.28,0,0,1-34.68-10.11,91,91,0,0,0-29.47-62,64.59,64.59,0,1,1,64.15,72.12Z"/></g></g></svg>