<?xml version="1.0" encoding="UTF-8"?><svg id="icons" xmlns="http://www.w3.org/2000/svg" viewBox="0 0 507.39 501"><g id="arrow2-left"><path d="M499.01,250.78c0,15.74-12.76,28.5-28.5,28.5H30.49c-15.74,0-28.5-12.76-28.5-28.5,0-15.74,12.76-28.5,28.5-28.5H470.51c15.74,0,28.5,12.76,28.5,28.5Z"/><path d="M242.45,424.72c0,7.04-2.59,14.09-7.82,19.6-10.83,11.42-28.87,11.9-40.29,1.07L10.89,271.46c-11.42-10.83-11.9-28.86-1.07-40.29,10.83-11.42,28.87-11.9,40.29-1.07l183.46,173.94c5.91,5.6,8.89,13.14,8.89,20.68Z"/><path d="M242.45,76.28c0,7.55-2.98,15.08-8.89,20.68L50.1,270.9c-11.42,10.83-29.46,10.35-40.29-1.07-10.83-11.42-10.35-29.46,1.07-40.29L194.35,55.61c11.42-10.83,29.46-10.35,40.29,1.07,5.22,5.51,7.82,12.56,7.82,19.6Z"/></g></svg>