<svg xmlns="http://www.w3.org/2000/svg" viewBox="0 0 492.26 482.23">
    <defs>
        <style>.cls-1{fill:#1d1d1b;}</style>
    </defs>
    <g id="Layer_2" data-name="Layer 2">
        <g id="Pin">
            <g id="Upload">
                <path class="cls-1" d="M452.37,295.7V427.11a15,15,0,0,1-15,15H54.89a15,15,0,0,1-15-15V295.7H0V452.23a30.09,30.09,0,0,0,30,30H462.26a30.09,30.09,0,0,0,30-30V295.7Z"/>
                <path d="M246.13,354.14a20.3,20.3,0,0,1-20.31-20.3V20.31a20.31,20.31,0,1,1,40.61,0V333.84A20.3,20.3,0,0,1,246.13,354.14Z"/>
                <path d="M122.19,171.33a20.3,20.3,0,0,1-14.73-34.27L231.39,6.34a20.3,20.3,0,1,1,29.47,27.94L136.93,165A20.26,20.26,0,0,1,122.19,171.33Z"/>
                <path d="M370.46,171.33A20.26,20.26,0,0,1,355.72,165L231.79,34.28A20.3,20.3,0,1,1,261.26,6.34L385.19,137.06a20.3,20.3,0,0,1-14.73,34.27Z"/>
            </g>
        </g>
    </g>
</svg>