<svg xmlns="http://www.w3.org/2000/svg" viewBox="0 0 417.92 498.72"><defs><style>.cls-1{fill:#1d1d1b;}</style></defs><g id="Layer_2" data-name="Layer 2"><g id="Pin"><g id="Padlock"><path class="cls-1" d="M377.92,272.93V458.72H40V272.93H377.92m40-40H0V498.72H417.92V232.93Z"/><path class="cls-1" d="M206.35,40A133.24,133.24,0,0,1,339.08,172.72v58.36H73.63V172.72A133.23,133.23,0,0,1,206.35,40m0-40c-95,0-172.72,77.72-172.72,172.72v98.36H379.08V172.72A173.24,173.24,0,0,0,206.35,0Z"/><path class="cls-1" d="M206.35,310.29a22.28,22.28,0,0,0-22.21,22.22v66.63a22.22,22.22,0,1,0,44.43,0V332.51a22.29,22.29,0,0,0-22.22-22.22Z"/></g></g></g></svg>