<?xml version="1.0" encoding="UTF-8"?><svg id="icons" xmlns="http://www.w3.org/2000/svg" viewBox="0 0 507.39 501"><g id="arrow2-up"><path d="M.5,128.81c0-9.98,8.09-18.06,18.06-18.06H482.44c9.98,0,18.06,8.09,18.06,18.06s-8.09,18.06-18.06,18.06H18.56c-9.97,0-18.06-8.09-18.06-18.06Z"/><path d="M348.09,18.56c0-4.46,1.64-8.93,4.95-12.42,6.86-7.24,18.3-7.54,25.53-.68l116.28,110.24c7.24,6.86,7.54,18.29,.68,25.53-6.86,7.24-18.3,7.54-25.53,.68L353.73,31.67c-3.75-3.55-5.64-8.33-5.64-13.11Z"/><path d="M348.09,239.4c0-4.78,1.89-9.56,5.64-13.11l116.28-110.24c7.24-6.86,18.67-6.56,25.53,.68,6.86,7.24,6.56,18.67-.68,25.53l-116.28,110.24c-7.24,6.86-18.67,6.56-25.53-.68-3.31-3.49-4.95-7.96-4.95-12.42Z"/></g><g id="arrow2-up-2"><path d="M500.5,372.19c0,9.98-8.09,18.06-18.06,18.06H18.56c-9.98,0-18.06-8.09-18.06-18.06s8.09-18.06,18.06-18.06H482.44c9.97,0,18.06,8.09,18.06,18.06Z"/><path d="M152.91,482.44c0,4.46-1.64,8.93-4.95,12.42-6.86,7.24-18.3,7.54-25.53,.68L6.14,385.3c-7.24-6.86-7.54-18.29-.68-25.53,6.86-7.24,18.3-7.54,25.53-.68l116.28,110.24c3.75,3.55,5.64,8.33,5.64,13.11Z"/><path d="M152.91,261.6c0,4.78-1.89,9.56-5.64,13.11L30.99,384.95c-7.24,6.86-18.67,6.56-25.53-.68-6.86-7.24-6.56-18.67,.68-25.53l116.28-110.24c7.24-6.86,18.67-6.56,25.53,.68,3.31,3.49,4.95,7.96,4.95,12.42Z"/></g></svg>