<?xml version="1.0" encoding="UTF-8"?><svg id="a" xmlns="http://www.w3.org/2000/svg" viewBox="0 0 501 501"><defs><style>.c{fill:#1d1d1b;}</style></defs><path id="b" class="c" d="M464.83,435.24l-27.08-29.04c-17.83-17.44-30.41-39.53-36.31-63.77V191.44c-.05-69.43-46.33-130.33-113.21-148.98-1.18-9.64-5.26-18.7-11.69-25.98-7.94-8.21-18.98-12.68-30.4-12.3-12.21-.43-24.05,4.22-32.71,12.85-6.84,7.47-11.28,16.82-12.73,26.85-64.48,20.24-108.37,79.98-108.42,147.56v150.97c-2.71,13.75-8.73,26.63-17.55,37.53-9.64,14.92-19.51,27.19-19.6,27.34l-22.6,27.97H169.96c9.51,42.47,51.65,69.19,94.12,59.68,29.76-6.67,53.01-29.91,59.68-59.68h141.07Zm-217.97,27.08c-17.78-.01-33.84-10.65-40.79-27.02h81.58c-6.95,16.37-23,27.01-40.79,27.02m-15.5-428.17c4-3.7,9.35-5.57,14.78-5.17,4.5-.36,8.95,1.2,12.24,4.3,1.18,1.26,2.15,2.71,2.89,4.27-4.75-.44-9.56-.66-14.43-.66-6.13,0-12.25,.36-18.33,1.07,.79-1.39,1.76-2.67,2.89-3.81M102.36,400.75l1.24-1.88c12.66-16.38,20.7-35.86,23.27-56.4V191.44c-.02-66.3,53.72-120.07,120.03-120.08,66.3-.02,120.07,53.72,120.08,120.03v151.05c2,21.16,9.86,41.34,22.69,58.28l-287.3,.03Z"/></svg>