<svg xmlns="http://www.w3.org/2000/svg" viewBox="0 0 245.28 212.42"><defs><style>.cls-1{fill:#000000;fill-rule:evenodd;}.cls-2{fill:#fff;}</style></defs><g id="Layer_2" data-name="Layer 2"><g id="Layer_1-2" data-name="Layer 1"><path class="cls-1" d="M122.64,0,245.28,212.42H0Z"/><path class="cls-2" d="M121.79,164.69A10.29,10.29,0,0,1,128.6,167a7.22,7.22,0,0,1,2.61,5.89,7.49,7.49,0,0,1-2.76,5.91,10.19,10.19,0,0,1-6.87,2.23,10.37,10.37,0,0,1-7-2.36,7.49,7.49,0,0,1-2.56-6,7.32,7.32,0,0,1,2.71-5.84A10.56,10.56,0,0,1,121.79,164.69Zm-2.32-12.78-5.42-65.7L132,85.69l.71.55-8.26,65.51Z"/></g></g></svg>