<svg xmlns="http://www.w3.org/2000/svg" viewBox="0 0 212.24 212.24"><defs><style>.cls-1{fill:#94b243;}.cls-1,.cls-2{fill-rule:evenodd;}.cls-2{fill:#fff;}</style></defs><g id="Layer_2" data-name="Layer 2"><g id="Layer_1-2" data-name="Layer 1"><path class="cls-1" d="M106.12,0c60,0,106.12,47.51,106.12,106.12,0,60-46.08,106.12-106.12,106.12C47.51,212.24,0,166.16,0,106.12A106.12,106.12,0,0,1,106.12,0Z"/><path class="cls-2" d="M137.56,50.74c1.05-1.7,1.85-3.68,3.44-5,2.57-2.09,6.14-2.45,9.33-2.15a17.18,17.18,0,0,1,9.46,3.55,13.77,13.77,0,0,1,1.64,1.6c1.91,2.22.7,4.63-1.11,6.45a48.4,48.4,0,0,1-4.79,3.65,39.35,39.35,0,0,0-4.4,4.06,55.19,55.19,0,0,0-6.07,8.2l-.51.82a422.51,422.51,0,0,0-29.89,57.71c-2.94,6.87-5.38,13.93-8,20.95-1,2.85-1.53,7.66-3.85,9.25-3.94,2.7-7.95,3.59-16.39-.49-1.9-2.31-4.72-8.67-6.27-11.69-4.58-8.92-8.89-18.26-14.47-26.3-1.31-1.9-3-3.58-4.44-5.36-.81-1-1.63-1.91-2.36-2.93a10.34,10.34,0,0,1-1.77-3.3,2,2,0,0,1,.07-1.29,2.57,2.57,0,0,1,.75-.89,12.62,12.62,0,0,1,5.17-2.52,22.43,22.43,0,0,1,5.66-.55,13,13,0,0,1,5.08,1l.24.11a4.77,4.77,0,0,1,.76.43c2.06,1.39,3.59,4.07,5.07,6.09,4.62,6.31,12.49,23.3,12.77,22.51C101.4,104.25,131.43,60.68,137.56,50.74Z"/></g></g></svg>