<svg xmlns="http://www.w3.org/2000/svg" viewBox="0 0 494.54 494.54"><defs><style>.cls-1{fill:#1d1d1b;}</style></defs><g id="Layer_2" data-name="Layer 2"><g id="Pin"><circle id="Spindle" class="cls-1" cx="247.69" cy="247.68" r="21.29"/><rect id="Minute" class="cls-1" x="150.67" y="80.55" width="24.91" height="160.68" transform="translate(-65.98 162.57) rotate(-45.02)"/><rect id="Hour_hand" data-name="Hour hand" class="cls-1" x="307.15" y="127.93" width="23.83" height="111.32" transform="translate(223.12 -171.8) rotate(44.98)"/><circle id="_9" data-name="9" class="cls-1" cx="53.37" cy="247.38" r="11.05"/><circle id="_6" data-name="6" class="cls-1" cx="247.32" cy="441.12" r="11.05"/><circle id="_3" data-name="3" class="cls-1" cx="441.26" cy="247.38" r="11.05"/><circle id="_12" data-name="12" class="cls-1" cx="247.32" cy="53.19" r="11.05"/><path class="cls-1" d="M315.71,9.73c-131.19-37.8-268.18,37.91-306,169.1A246,246,0,0,0,3.21,286.92l24.18-6.71a221.61,221.61,0,0,1,6.31-94.47C67.72,67.66,191-.47,309.09,33.54S495.3,190.85,461.28,308.93,304,495.14,185.89,461.12a221.8,221.8,0,0,1-77.82-40.34l-18.54,16.9a246.29,246.29,0,0,0,89.3,47.13C310,522.61,447,446.9,484.81,315.71S446.9,47.52,315.71,9.73Z"/><polygon id="Arrow" class="cls-1" points="53.78 469.38 146.74 392.83 52.09 366.98 53.78 469.38"/></g></g></svg>