<?xml version="1.0" encoding="UTF-8"?>
<svg id="Layer_2" data-name="Layer 2" xmlns="http://www.w3.org/2000/svg" viewBox="0 0 500.98 500">
  <defs>
    <style>
      .cls-1 {
        fill: #1d1d1b;
      }
    </style>
  </defs>
  <g id="icons">
    <g>
      <path class="cls-1" d="M250.43,108.6c-34.52,0-62.5,27.98-62.5,62.5s27.98,62.5,62.5,62.5,62.5-27.98,62.5-62.5-27.98-62.5-62.5-62.5Zm0,101c-21.23,0-38.5-17.27-38.5-38.5s17.27-38.5,38.5-38.5,38.5,17.27,38.5,38.5-17.27,38.5-38.5,38.5Z"/>
      <path class="cls-1" d="M371.6,214.11h129.38l-64.96-23.65-64.41-23.45v-49.22l-.93-.9-33.56-32.65L250.55,0l-86.57,84.22-33.56,32.65-.93,.9v49.18l-64.53,23.5L0,214.11H129.5v19.49H.43V500H500.43V233.6h-128.83v-19.49ZM24.43,476v-218.4h105.07v218.4H24.43Zm452-218.4v218.4h-104.83v-218.4h104.83Zm-128.83,0v218.4h-34.55v-120.31c0-34.37-28.12-62.5-62.5-62.5h0c-34.37,0-62.5,28.12-62.5,62.5v120.31h-34.55V127.91l11.34-11.04,15.88-15.45L250.55,33.48l69.83,67.94,15.88,15.45,11.34,11.04v129.69Z"/>
      <rect class="cls-1" x="50.37" y="294.01" width="48.44" height="68.86"/>
      <rect class="cls-1" x="50.38" y="390.48" width="48.44" height="68.86"/>
      <rect class="cls-1" x="399.79" y="294.01" width="48.44" height="68.86"/>
      <rect class="cls-1" x="399.8" y="390.48" width="48.44" height="68.86"/>
    </g>
  </g>
</svg>