<svg xmlns="http://www.w3.org/2000/svg" viewBox="0 0 282.66 212.6"><defs><style>.cls-1{fill:#000000;fill-rule:evenodd;}.cls-2{fill:#fff;}</style></defs><g id="Layer_2" data-name="Layer 2"><g id="Layer_1-2" data-name="Layer 1"><path class="cls-1" d="M80.25,114.26V35.14C80.25,15.73,95.72,0,114.82,0H248.09c19.09,0,34.57,15.73,34.57,35.14V177.46c0,19.41-15.48,35.14-34.57,35.14H114.82c-16.73,0-28.27-14.33-31.47-30.37H77.4L0,182.2Z"/><path class="cls-2" d="M173.53,146.43q5.67,0,8.64,3.17a11.7,11.7,0,0,1,3,8.35,11.34,11.34,0,0,1-3.32,8.45,11.58,11.58,0,0,1-8.49,3.27,10.09,10.09,0,0,1-7.91-3.27A12.14,12.14,0,0,1,162.5,158a11.12,11.12,0,0,1,3.27-8.35A10.79,10.79,0,0,1,173.53,146.43ZM174.9,128,185.64,35.4,208.49,34l.69.78-28,93.07Z"/></g></g></svg>