<svg id="Pin" xmlns="http://www.w3.org/2000/svg" viewBox="0 0 500 500"><defs><style>.cls-1{fill:#333;fill-rule:evenodd;}</style></defs><path id="User" class="cls-1" d="M250,500C111.93,500,0,388.07,0,250S111.93,0,250,0,500,111.93,500,250,388.07,500,250,500Zm0-473.68C126.46,26.32,26.32,126.46,26.32,250c0,48.58,15.49,93.53,41.79,132.05,27.83-60.42,65-87.33,101.17-105.38a121.22,121.22,0,0,0,81.38,31.22c31.12,0,61-11.69,81-30.92,41.38,19.1,77.12,46.4,106.56,93.89A222.65,222.65,0,0,0,473.68,250C473.68,126.46,373.54,26.32,250,26.32Zm-.66,257.89a102,102,0,0,1-102-102c0-56.32,45.65-99.64,102-99.64s102,43.32,102,99.64A102,102,0,0,1,249.34,284.21Z"/></svg>