<svg xmlns="http://www.w3.org/2000/svg" viewBox="0 0 500 462.73"><defs><style>.cls-1{fill:#5a5e6b;}</style></defs><g id="Layer_2" data-name="Layer 2"><g id="Pin"><path id="Calendar" class="cls-1" d="M62.5,400.23h41.67V358.56H62.5Zm104.17,0h41.66V358.56H166.67Zm104.16,0H312.5V358.56H270.83ZM62.5,337.73h41.67V296.06H62.5Zm104.17,0h41.66V296.06H166.67Zm104.16,0H312.5V296.06H270.83Zm104.17,0h41.67V296.06H375ZM62.5,275.23h41.67V233.56H62.5Zm104.17,0h41.66V233.56H166.67Zm104.16,0H312.5V233.56H270.83Zm104.17,0h41.67V233.56H375Zm-208.33-62.5h41.66V171.06H166.67Zm104.16,0H312.5V171.06H270.83Zm104.17,0h41.67V171.06H375ZM20.83,148.15H479.17V441.9H20.83ZM397.42,92.79V46.06h81.75v81.25H20.83V46.06H97.4V91.9h20.83V46.06H376.56V92.79ZM376.58,0V25.23H118.23V0H97.4V25.23H0v437.5H500V25.23H397.42V0Z"/></g></g></svg>